<?xml version="1.0" encoding="utf-8"?>
<!-- Generator: Adobe Illustrator 24.1.2, SVG Export Plug-In . SVG Version: 6.00 Build 0)  -->
<svg version="1.1" id="Слой_1" xmlns="http://www.w3.org/2000/svg" xmlns:xlink="http://www.w3.org/1999/xlink" x="0px" y="0px"
	 viewBox="0 0 100 100" style="enable-background:new 0 0 100 100;" xml:space="preserve">
<path d="M71,75c2.08,0,3.85-0.73,5.31-2.19c1.46-1.46,2.19-3.23,2.19-5.31c0-2.08-0.73-3.85-2.19-5.31S73.08,60,71,60
	s-3.85,0.73-5.31,2.19s-2.19,3.23-2.19,5.31c0,2.08,0.73,3.85,2.19,5.31C67.15,74.27,68.92,75,71,75z M71,90
	c2.58,0,4.96-0.6,7.13-1.81s3.92-2.81,5.25-4.81c-1.83-1.08-3.79-1.92-5.88-2.5S73.25,80,71,80s-4.42,0.29-6.5,0.88
	s-4.04,1.42-5.88,2.5c1.33,2,3.08,3.6,5.25,4.81S68.42,90,71,90z M46,100c-11.58-2.92-21.15-9.56-28.69-19.94S6,58.17,6,45.5V15
	L46,0l40,15v28.38c-1.58-0.67-3.21-1.27-4.88-1.81s-3.38-0.94-5.13-1.19V22L46,10.75L16,22v23.5c0,3.92,0.52,7.83,1.56,11.75
	c1.04,3.92,2.5,7.65,4.38,11.19c1.88,3.54,4.15,6.81,6.81,9.81s5.63,5.5,8.88,7.5c0.92,2.67,2.13,5.21,3.63,7.63s3.21,4.58,5.13,6.5
	c-0.08,0-0.15,0.02-0.19,0.06S46.08,100,46,100z M71,100c-6.92,0-12.81-2.44-17.69-7.31S46,81.92,46,75
	c0-6.92,2.44-12.81,7.31-17.69S64.08,50,71,50s12.81,2.44,17.69,7.31S96,68.08,96,75c0,6.92-2.44,12.81-7.31,17.69S77.92,100,71,100
	z"/>
</svg>
