<?xml version="1.0" encoding="utf-8"?>
<!-- Generator: Adobe Illustrator 24.1.2, SVG Export Plug-In . SVG Version: 6.00 Build 0)  -->
<svg version="1.1" id="Слой_1" xmlns="http://www.w3.org/2000/svg" xmlns:xlink="http://www.w3.org/1999/xlink" x="0px" y="0px"
	 viewBox="0 0 100 100" style="enable-background:new 0 0 100 100;" xml:space="preserve">
<path d="M31.23,18.74c3.46,0,6.25-2.79,6.25-6.25s-2.79-6.25-6.25-6.25h-12.5c-10.35,0-18.76,8.4-18.76,18.76v50.01
	c0,10.35,8.4,18.76,18.76,18.76h12.5c3.46,0,6.25-2.79,6.25-6.25s-2.79-6.25-6.25-6.25h-12.5c-3.46,0-6.25-2.79-6.25-6.25V24.99
	c0-3.46,2.79-6.25,6.25-6.25H31.23z M98.17,54.42c2.44-2.44,2.44-6.41,0-8.85L73.16,20.56c-2.44-2.44-6.41-2.44-8.85,0
	c-2.44,2.44-2.44,6.41,0,8.85l14.34,14.34H37.49c-3.46,0-6.25,2.79-6.25,6.25s2.79,6.25,6.25,6.25h41.16L64.31,70.59
	c-2.44,2.44-2.44,6.41,0,8.85c2.44,2.44,6.41,2.44,8.85,0l25.01-25.01V54.42z"/>
</svg>
