<?xml version="1.0" encoding="utf-8"?>
<!-- Generator: Adobe Illustrator 24.1.2, SVG Export Plug-In . SVG Version: 6.00 Build 0)  -->
<svg version="1.1" id="Слой_1" xmlns="http://www.w3.org/2000/svg" xmlns:xlink="http://www.w3.org/1999/xlink" x="0px" y="0px"
	 viewBox="0 0 300 300" style="enable-background:new 0 0 300 300;" xml:space="preserve">
<path d="M271.9,150c0-67.3-54.6-121.9-121.9-121.9S28.1,82.7,28.1,150S82.7,271.9,150,271.9S271.9,217.3,271.9,150z M0,150
	C0,67.1,67.1,0,150,0s150,67.1,150,150s-67.1,150-150,150S0,232.9,0,150z M150,103.1c-10.4,0-18.8,8.4-18.8,18.8
	c0,7.8-6.3,14.1-14.1,14.1s-14.1-6.3-14.1-14.1c0-25.9,21-46.9,46.9-46.9s46.9,21,46.9,46.9c0,27.7-21.1,39.4-32.8,43.7v2.2
	c0,7.8-6.3,14.1-14.1,14.1s-14.1-6.3-14.1-14.1V163c0-12,8.7-20.6,17.6-23.6c3.8-1.2,7.7-3.2,10.7-6c2.5-2.5,4.5-5.9,4.5-11.5
	C168.8,111.6,160.4,103.2,150,103.1L150,103.1z M131.3,215.6c0-10.4,8.4-18.8,18.8-18.8s18.8,8.4,18.8,18.8s-8.4,18.8-18.8,18.8
	S131.3,226,131.3,215.6z"/>
</svg>
