<?xml version="1.0" encoding="utf-8"?>
<!-- Generator: Adobe Illustrator 24.1.2, SVG Export Plug-In . SVG Version: 6.00 Build 0)  -->
<svg version="1.1" id="Слой_1" xmlns="http://www.w3.org/2000/svg" xmlns:xlink="http://www.w3.org/1999/xlink" x="0px" y="0px"
	 viewBox="0 0 300 300.1" style="enable-background:new 0 0 300 300.1;" xml:space="preserve">
<path d="M206.8,12.5l-26.3,26.3l80.8,80.8l26.3-26.3c8-7.9,12.4-18.7,12.4-29.9s-4.5-22-12.4-29.9l-20.9-20.9
	C258.8,4.5,248,0,236.7,0S214.7,4.5,206.8,12.5z M160.6,58.6l-126.1,126c-6.3,6.3-10.8,14.1-13.2,22.7L0.5,282.2
	c-1.3,4.9,0,10.1,3.6,13.7c3.6,3.6,8.8,5,13.7,3.6l74.9-20.8c8.6-2.4,16.3-6.9,22.7-13.2l126-126.1L160.6,58.6z"/>
</svg>
