<?xml version="1.0" encoding="utf-8"?>
<!-- Generator: Adobe Illustrator 24.1.2, SVG Export Plug-In . SVG Version: 6.00 Build 0)  -->
<svg version="1.1" id="Слой_1" xmlns="http://www.w3.org/2000/svg" xmlns:xlink="http://www.w3.org/1999/xlink" x="0px" y="0px"
	 viewBox="0 0 100 100" style="enable-background:new 0 0 100 100;" xml:space="preserve">
<style type="text/css">
	.st0{stroke:#000000;stroke-width:9;stroke-miterlimit:10;}
</style>
<path class="st0" d="M41.1,88.4L41.1,88.4L34.6,93c-1.2,0.9-2.9,1-4.3,0.3c-1.4-0.7-2.2-2.1-2.2-3.6V77.3h-5.5
	c-9.1,0-16.4-7.3-16.4-16.4V22.7c0-9.1,7.3-16.4,16.4-16.4h54.7c9.1,0,16.4,7.3,16.4,16.4v38.3c0,9.1-7.3,16.4-16.4,16.4H56.8
	L41.1,88.4z M52.1,70.6c1.4-1,3-1.5,4.7-1.5h20.6c4.5,0,8.2-3.7,8.2-8.2V22.7c0-4.5-3.7-8.2-8.2-8.2H22.7c-4.5,0-8.2,3.7-8.2,8.2
	v38.3c0,4.5,3.7,8.2,8.2,8.2h9.6c1.8,0,3.3,1.1,3.9,2.7c0.2,0.4,0.2,0.9,0.2,1.4v8.5C41.9,77.8,47.1,74.1,52.1,70.6L52.1,70.6z"/>
</svg>
