<?xml version="1.0" encoding="utf-8"?>
<!-- Generator: Adobe Illustrator 24.1.2, SVG Export Plug-In . SVG Version: 6.00 Build 0)  -->
<svg version="1.1" id="Слой_1" xmlns="http://www.w3.org/2000/svg" xmlns:xlink="http://www.w3.org/1999/xlink" x="0px" y="0px"
	 viewBox="0 0 300 233.3" style="enable-background:new 0 0 300 233.3;" xml:space="preserve">
<path d="M150,25c-33.9,0-61.9,15.4-83.3,35.3c-20,18.6-33.9,40.8-41,56.4c7.1,15.6,20.9,37.8,41,56.4c21.4,19.8,49.3,35.3,83.3,35.3
	s61.9-15.4,83.3-35.3c20-18.6,33.9-40.8,41-56.4c-7.1-15.6-20.9-37.8-41-56.4C211.9,40.4,183.9,25,150,25z M49.7,42
	C74.2,19.2,107.9,0,150,0s75.8,19.2,100.3,42c24.4,22.7,40.7,49.7,48.4,68.3c1.7,4.1,1.7,8.7,0,12.8c-7.8,18.6-24.1,45.7-48.4,68.3
	c-24.5,22.8-58.2,42-100.3,42s-75.8-19.2-100.3-42C25.3,168.7,9,141.6,1.3,123c-1.7-4.1-1.7-8.7,0-12.8C9,91.6,25.3,64.6,49.7,42z
	 M150,158.3c23,0,41.7-18.6,41.7-41.7c0-15.4-8.4-28.9-20.8-36.1c-0.7,31.1-25.8,56.2-56.9,56.9C121.1,149.9,134.6,158.3,150,158.3z
	 M108.6,112.3c1.3,0.2,2.6,0.2,4,0.2c18.4,0,33.3-14.9,33.3-33.3c0-1.4-0.1-2.7-0.2-4C126.2,77.2,110.6,92.7,108.6,112.3
	L108.6,112.3z M132.3,52.4c5.6-1.6,11.6-2.3,17.7-2.3c4.6,0,9.1,0.5,13.4,1.4c0.2,0.1,0.3,0.1,0.4,0.1c30.1,6.4,52.8,33.2,52.8,65.2
	c0,36.8-29.8,66.6-66.6,66.6c-32.1,0-58.8-22.7-65.2-52.8c-0.9-4.5-1.5-9.1-1.5-13.9c0-5.7,0.7-11.4,2.1-16.7c0.1-0.4,0.2-0.7,0.3-1
	C91.8,76.4,109.6,58.6,132.3,52.4L132.3,52.4z"/>
</svg>
