<?xml version="1.0" encoding="utf-8"?>
<!-- Generator: Adobe Illustrator 24.1.2, SVG Export Plug-In . SVG Version: 6.00 Build 0)  -->
<svg version="1.1" id="Слой_1" xmlns="http://www.w3.org/2000/svg" xmlns:xlink="http://www.w3.org/1999/xlink" x="0px" y="0px"
	 viewBox="0 0 470 580" style="enable-background:new 0 0 470 580;" xml:space="preserve">
<style type="text/css">
	.st0{display:none;}
	.st1{display:inline;fill:#FFFFFF;}
</style>
<g>
	<g class="st0">
		<path class="st1" d="M385,515c0,13.8-11.3,25-25,25H110c-13.8,0-25-11.3-25-25V65c0-13.8,11.3-25,25-25h250c13.8,0,25,11.3,25,25
			V515z"/>
	</g>
</g>
<g>
	<rect x="60" y="339.6" width="50" height="0"/>
	<polygon points="360,398.8 410,348.8 410,348.8 360,398.8 	"/>
	<rect x="60" y="240.4" width="50" height="0"/>
	<path d="M373,151.9c-3.9-3.9-8.3-7.1-13-9.7l0-77.2c0,0-0.1-0.1,0-0.1l-249.9,0c0,0-0.1,0.1-0.1,0v145.4H60V65
		c0-27.6,22.4-50,50-50h250c27.6,0,50,22.4,50,50v123.9L373,151.9z"/>
	<path d="M110,369.6V515c0,0,0,0,0,0l249.9,0c0,0,0.1,0,0.1,0c0,0,0,0,0,0l0-77.2c4.7-2.5,9.1-5.7,13-9.6l0.1-0.1l0.1-0.1l36.9-36.9
		V515c0,27.6-22.4,50-50,50H110c-27.6,0-50-22.4-50-50V369.6H110z"/>
</g>
<path d="M451.2,307.6l-99.3,99.3c-7.1,7.1-17.8,9.2-27.1,5.4c-9.3-3.9-15.4-13-15.4-23v-49.6H48.9c-20.6,0-37.2-16.7-37.2-37.2
	v-24.8c0-20.6,16.7-37.2,37.2-37.2h260.6v-49.6c0-10,6-19.1,15.3-23s19.9-1.8,27.1,5.4l99.3,99.3
	C460.8,282.1,460.8,297.8,451.2,307.6L451.2,307.6z"/>
</svg>
