<?xml version="1.0" encoding="utf-8"?>
<!-- Generator: Adobe Illustrator 24.1.2, SVG Export Plug-In . SVG Version: 6.00 Build 0)  -->
<svg version="1.1" id="Слой_1" xmlns="http://www.w3.org/2000/svg" xmlns:xlink="http://www.w3.org/1999/xlink" x="0px" y="0px"
	 viewBox="0 0 100 100" style="enable-background:new 0 0 100 100;" xml:space="preserve">
<path d="M53.41,9.51C32.49,11.17,16.04,28.67,16.04,50c0,22.44,18.18,40.63,40.63,40.63c6.5,0,12.64-1.52,18.09-4.24
	c-20.2-4.57-35.27-22.62-35.27-44.2C39.48,29.34,44.83,17.75,53.41,9.51z M6.67,50c0-27.62,22.38-50,50-50
	c3.79,0,7.5,0.43,11.07,1.23c1.93,0.43,3.38,2.05,3.61,4C71.59,7.19,70.58,9.1,68.8,10c-11.84,5.9-19.94,18.11-19.94,32.19
	c0,19.84,16.09,35.94,35.94,35.94c0.98,0,1.93-0.04,2.89-0.12c1.97-0.16,3.83,0.94,4.65,2.75s0.39,3.93-1.04,5.29
	C82.31,94.69,70.11,100,56.67,100C29.05,100,6.67,77.62,6.67,50z"/>
</svg>
