<?xml version="1.0" encoding="utf-8"?>
<!DOCTYPE svg PUBLIC "-//W3C//DTD SVG 1.1//EN" "http://www.w3.org/Graphics/SVG/1.1/DTD/svg11.dtd">
<svg version="1.1" id="Layer_1" xmlns="http://www.w3.org/2000/svg" xmlns:xlink="http://www.w3.org/1999/xlink" x="0px" y="0px"
width="1155px" height="1155px" viewBox="0 0 1155 1155" enable-background="new 0 0 1155 1155" xml:space="preserve">
<rect x="0" y="0" width="1155" height="1155" fill="rgb(255,255,255)" /><g transform="translate(70,70)"><g transform="translate(280,0) scale(0.07,0.07)"><g transform="" style="fill: rgb(0, 0, 0);">
<path d="M250,0c138.077,0,250,111.93,250,250c0,138.077-111.923,250-250,250C111.93,500,0,388.077,0,250C0,111.93,111.93,0,250,0z"
	/>
</g></g><g transform="translate(315,0) scale(0.07,0.07)"><g transform="" style="fill: rgb(0, 0, 0);">
<path d="M250,0c138.077,0,250,111.93,250,250c0,138.077-111.923,250-250,250C111.93,500,0,388.077,0,250C0,111.93,111.93,0,250,0z"
	/>
</g></g><g transform="translate(420,0) scale(0.07,0.07)"><g transform="" style="fill: rgb(0, 0, 0);">
<path d="M250,0c138.077,0,250,111.93,250,250c0,138.077-111.923,250-250,250C111.93,500,0,388.077,0,250C0,111.93,111.93,0,250,0z"
	/>
</g></g><g transform="translate(455,0) scale(0.07,0.07)"><g transform="" style="fill: rgb(0, 0, 0);">
<path d="M250,0c138.077,0,250,111.93,250,250c0,138.077-111.923,250-250,250C111.93,500,0,388.077,0,250C0,111.93,111.93,0,250,0z"
	/>
</g></g><g transform="translate(490,0) scale(0.07,0.07)"><g transform="" style="fill: rgb(0, 0, 0);">
<path d="M250,0c138.077,0,250,111.93,250,250c0,138.077-111.923,250-250,250C111.93,500,0,388.077,0,250C0,111.93,111.93,0,250,0z"
	/>
</g></g><g transform="translate(525,0) scale(0.07,0.07)"><g transform="" style="fill: rgb(0, 0, 0);">
<path d="M250,0c138.077,0,250,111.93,250,250c0,138.077-111.923,250-250,250C111.93,500,0,388.077,0,250C0,111.93,111.93,0,250,0z"
	/>
</g></g><g transform="translate(595,0) scale(0.07,0.07)"><g transform="" style="fill: rgb(0, 0, 0);">
<path d="M250,0c138.077,0,250,111.93,250,250c0,138.077-111.923,250-250,250C111.93,500,0,388.077,0,250C0,111.93,111.93,0,250,0z"
	/>
</g></g><g transform="translate(350,35) scale(0.07,0.07)"><g transform="" style="fill: rgb(0, 0, 0);">
<path d="M250,0c138.077,0,250,111.93,250,250c0,138.077-111.923,250-250,250C111.93,500,0,388.077,0,250C0,111.93,111.93,0,250,0z"
	/>
</g></g><g transform="translate(420,35) scale(0.07,0.07)"><g transform="" style="fill: rgb(0, 0, 0);">
<path d="M250,0c138.077,0,250,111.93,250,250c0,138.077-111.923,250-250,250C111.93,500,0,388.077,0,250C0,111.93,111.93,0,250,0z"
	/>
</g></g><g transform="translate(525,35) scale(0.07,0.07)"><g transform="" style="fill: rgb(0, 0, 0);">
<path d="M250,0c138.077,0,250,111.93,250,250c0,138.077-111.923,250-250,250C111.93,500,0,388.077,0,250C0,111.93,111.93,0,250,0z"
	/>
</g></g><g transform="translate(595,35) scale(0.07,0.07)"><g transform="" style="fill: rgb(0, 0, 0);">
<path d="M250,0c138.077,0,250,111.93,250,250c0,138.077-111.923,250-250,250C111.93,500,0,388.077,0,250C0,111.93,111.93,0,250,0z"
	/>
</g></g><g transform="translate(280,70) scale(0.07,0.07)"><g transform="" style="fill: rgb(0, 0, 0);">
<path d="M250,0c138.077,0,250,111.93,250,250c0,138.077-111.923,250-250,250C111.93,500,0,388.077,0,250C0,111.93,111.93,0,250,0z"
	/>
</g></g><g transform="translate(315,70) scale(0.07,0.07)"><g transform="" style="fill: rgb(0, 0, 0);">
<path d="M250,0c138.077,0,250,111.93,250,250c0,138.077-111.923,250-250,250C111.93,500,0,388.077,0,250C0,111.93,111.93,0,250,0z"
	/>
</g></g><g transform="translate(350,70) scale(0.07,0.07)"><g transform="" style="fill: rgb(0, 0, 0);">
<path d="M250,0c138.077,0,250,111.93,250,250c0,138.077-111.923,250-250,250C111.93,500,0,388.077,0,250C0,111.93,111.93,0,250,0z"
	/>
</g></g><g transform="translate(385,70) scale(0.07,0.07)"><g transform="" style="fill: rgb(0, 0, 0);">
<path d="M250,0c138.077,0,250,111.93,250,250c0,138.077-111.923,250-250,250C111.93,500,0,388.077,0,250C0,111.93,111.93,0,250,0z"
	/>
</g></g><g transform="translate(455,70) scale(0.07,0.07)"><g transform="" style="fill: rgb(0, 0, 0);">
<path d="M250,0c138.077,0,250,111.93,250,250c0,138.077-111.923,250-250,250C111.93,500,0,388.077,0,250C0,111.93,111.93,0,250,0z"
	/>
</g></g><g transform="translate(595,70) scale(0.07,0.07)"><g transform="" style="fill: rgb(0, 0, 0);">
<path d="M250,0c138.077,0,250,111.93,250,250c0,138.077-111.923,250-250,250C111.93,500,0,388.077,0,250C0,111.93,111.93,0,250,0z"
	/>
</g></g><g transform="translate(630,70) scale(0.07,0.07)"><g transform="" style="fill: rgb(0, 0, 0);">
<path d="M250,0c138.077,0,250,111.93,250,250c0,138.077-111.923,250-250,250C111.93,500,0,388.077,0,250C0,111.93,111.93,0,250,0z"
	/>
</g></g><g transform="translate(385,105) scale(0.07,0.07)"><g transform="" style="fill: rgb(0, 0, 0);">
<path d="M250,0c138.077,0,250,111.93,250,250c0,138.077-111.923,250-250,250C111.93,500,0,388.077,0,250C0,111.93,111.93,0,250,0z"
	/>
</g></g><g transform="translate(420,105) scale(0.07,0.07)"><g transform="" style="fill: rgb(0, 0, 0);">
<path d="M250,0c138.077,0,250,111.93,250,250c0,138.077-111.923,250-250,250C111.93,500,0,388.077,0,250C0,111.93,111.93,0,250,0z"
	/>
</g></g><g transform="translate(525,105) scale(0.07,0.07)"><g transform="" style="fill: rgb(0, 0, 0);">
<path d="M250,0c138.077,0,250,111.93,250,250c0,138.077-111.923,250-250,250C111.93,500,0,388.077,0,250C0,111.93,111.93,0,250,0z"
	/>
</g></g><g transform="translate(595,105) scale(0.07,0.07)"><g transform="" style="fill: rgb(0, 0, 0);">
<path d="M250,0c138.077,0,250,111.93,250,250c0,138.077-111.923,250-250,250C111.93,500,0,388.077,0,250C0,111.93,111.93,0,250,0z"
	/>
</g></g><g transform="translate(630,105) scale(0.07,0.07)"><g transform="" style="fill: rgb(0, 0, 0);">
<path d="M250,0c138.077,0,250,111.93,250,250c0,138.077-111.923,250-250,250C111.93,500,0,388.077,0,250C0,111.93,111.93,0,250,0z"
	/>
</g></g><g transform="translate(665,105) scale(0.07,0.07)"><g transform="" style="fill: rgb(0, 0, 0);">
<path d="M250,0c138.077,0,250,111.93,250,250c0,138.077-111.923,250-250,250C111.93,500,0,388.077,0,250C0,111.93,111.93,0,250,0z"
	/>
</g></g><g transform="translate(350,140) scale(0.07,0.07)"><g transform="" style="fill: rgb(0, 0, 0);">
<path d="M250,0c138.077,0,250,111.93,250,250c0,138.077-111.923,250-250,250C111.93,500,0,388.077,0,250C0,111.93,111.93,0,250,0z"
	/>
</g></g><g transform="translate(385,140) scale(0.07,0.07)"><g transform="" style="fill: rgb(0, 0, 0);">
<path d="M250,0c138.077,0,250,111.93,250,250c0,138.077-111.923,250-250,250C111.93,500,0,388.077,0,250C0,111.93,111.93,0,250,0z"
	/>
</g></g><g transform="translate(525,140) scale(0.07,0.07)"><g transform="" style="fill: rgb(0, 0, 0);">
<path d="M250,0c138.077,0,250,111.93,250,250c0,138.077-111.923,250-250,250C111.93,500,0,388.077,0,250C0,111.93,111.93,0,250,0z"
	/>
</g></g><g transform="translate(560,140) scale(0.07,0.07)"><g transform="" style="fill: rgb(0, 0, 0);">
<path d="M250,0c138.077,0,250,111.93,250,250c0,138.077-111.923,250-250,250C111.93,500,0,388.077,0,250C0,111.93,111.93,0,250,0z"
	/>
</g></g><g transform="translate(595,140) scale(0.07,0.07)"><g transform="" style="fill: rgb(0, 0, 0);">
<path d="M250,0c138.077,0,250,111.93,250,250c0,138.077-111.923,250-250,250C111.93,500,0,388.077,0,250C0,111.93,111.93,0,250,0z"
	/>
</g></g><g transform="translate(700,140) scale(0.07,0.07)"><g transform="" style="fill: rgb(0, 0, 0);">
<path d="M250,0c138.077,0,250,111.93,250,250c0,138.077-111.923,250-250,250C111.93,500,0,388.077,0,250C0,111.93,111.93,0,250,0z"
	/>
</g></g><g transform="translate(280,175) scale(0.07,0.07)"><g transform="" style="fill: rgb(0, 0, 0);">
<path d="M250,0c138.077,0,250,111.93,250,250c0,138.077-111.923,250-250,250C111.93,500,0,388.077,0,250C0,111.93,111.93,0,250,0z"
	/>
</g></g><g transform="translate(315,175) scale(0.07,0.07)"><g transform="" style="fill: rgb(0, 0, 0);">
<path d="M250,0c138.077,0,250,111.93,250,250c0,138.077-111.923,250-250,250C111.93,500,0,388.077,0,250C0,111.93,111.93,0,250,0z"
	/>
</g></g><g transform="translate(350,175) scale(0.07,0.07)"><g transform="" style="fill: rgb(0, 0, 0);">
<path d="M250,0c138.077,0,250,111.93,250,250c0,138.077-111.923,250-250,250C111.93,500,0,388.077,0,250C0,111.93,111.93,0,250,0z"
	/>
</g></g><g transform="translate(385,175) scale(0.07,0.07)"><g transform="" style="fill: rgb(0, 0, 0);">
<path d="M250,0c138.077,0,250,111.93,250,250c0,138.077-111.923,250-250,250C111.93,500,0,388.077,0,250C0,111.93,111.93,0,250,0z"
	/>
</g></g><g transform="translate(420,175) scale(0.07,0.07)"><g transform="" style="fill: rgb(0, 0, 0);">
<path d="M250,0c138.077,0,250,111.93,250,250c0,138.077-111.923,250-250,250C111.93,500,0,388.077,0,250C0,111.93,111.93,0,250,0z"
	/>
</g></g><g transform="translate(455,175) scale(0.07,0.07)"><g transform="" style="fill: rgb(0, 0, 0);">
<path d="M250,0c138.077,0,250,111.93,250,250c0,138.077-111.923,250-250,250C111.93,500,0,388.077,0,250C0,111.93,111.93,0,250,0z"
	/>
</g></g><g transform="translate(490,175) scale(0.07,0.07)"><g transform="" style="fill: rgb(0, 0, 0);">
<path d="M250,0c138.077,0,250,111.93,250,250c0,138.077-111.923,250-250,250C111.93,500,0,388.077,0,250C0,111.93,111.93,0,250,0z"
	/>
</g></g><g transform="translate(630,175) scale(0.07,0.07)"><g transform="" style="fill: rgb(0, 0, 0);">
<path d="M250,0c138.077,0,250,111.93,250,250c0,138.077-111.923,250-250,250C111.93,500,0,388.077,0,250C0,111.93,111.93,0,250,0z"
	/>
</g></g><g transform="translate(700,175) scale(0.07,0.07)"><g transform="" style="fill: rgb(0, 0, 0);">
<path d="M250,0c138.077,0,250,111.93,250,250c0,138.077-111.923,250-250,250C111.93,500,0,388.077,0,250C0,111.93,111.93,0,250,0z"
	/>
</g></g><g transform="translate(280,210) scale(0.07,0.07)"><g transform="" style="fill: rgb(0, 0, 0);">
<path d="M250,0c138.077,0,250,111.93,250,250c0,138.077-111.923,250-250,250C111.93,500,0,388.077,0,250C0,111.93,111.93,0,250,0z"
	/>
</g></g><g transform="translate(350,210) scale(0.07,0.07)"><g transform="" style="fill: rgb(0, 0, 0);">
<path d="M250,0c138.077,0,250,111.93,250,250c0,138.077-111.923,250-250,250C111.93,500,0,388.077,0,250C0,111.93,111.93,0,250,0z"
	/>
</g></g><g transform="translate(420,210) scale(0.07,0.07)"><g transform="" style="fill: rgb(0, 0, 0);">
<path d="M250,0c138.077,0,250,111.93,250,250c0,138.077-111.923,250-250,250C111.93,500,0,388.077,0,250C0,111.93,111.93,0,250,0z"
	/>
</g></g><g transform="translate(490,210) scale(0.07,0.07)"><g transform="" style="fill: rgb(0, 0, 0);">
<path d="M250,0c138.077,0,250,111.93,250,250c0,138.077-111.923,250-250,250C111.93,500,0,388.077,0,250C0,111.93,111.93,0,250,0z"
	/>
</g></g><g transform="translate(560,210) scale(0.07,0.07)"><g transform="" style="fill: rgb(0, 0, 0);">
<path d="M250,0c138.077,0,250,111.93,250,250c0,138.077-111.923,250-250,250C111.93,500,0,388.077,0,250C0,111.93,111.93,0,250,0z"
	/>
</g></g><g transform="translate(630,210) scale(0.07,0.07)"><g transform="" style="fill: rgb(0, 0, 0);">
<path d="M250,0c138.077,0,250,111.93,250,250c0,138.077-111.923,250-250,250C111.93,500,0,388.077,0,250C0,111.93,111.93,0,250,0z"
	/>
</g></g><g transform="translate(700,210) scale(0.07,0.07)"><g transform="" style="fill: rgb(0, 0, 0);">
<path d="M250,0c138.077,0,250,111.93,250,250c0,138.077-111.923,250-250,250C111.93,500,0,388.077,0,250C0,111.93,111.93,0,250,0z"
	/>
</g></g><g transform="translate(315,245) scale(0.07,0.07)"><g transform="" style="fill: rgb(0, 0, 0);">
<path d="M250,0c138.077,0,250,111.93,250,250c0,138.077-111.923,250-250,250C111.93,500,0,388.077,0,250C0,111.93,111.93,0,250,0z"
	/>
</g></g><g transform="translate(350,245) scale(0.07,0.07)"><g transform="" style="fill: rgb(0, 0, 0);">
<path d="M250,0c138.077,0,250,111.93,250,250c0,138.077-111.923,250-250,250C111.93,500,0,388.077,0,250C0,111.93,111.93,0,250,0z"
	/>
</g></g><g transform="translate(420,245) scale(0.07,0.07)"><g transform="" style="fill: rgb(0, 0, 0);">
<path d="M250,0c138.077,0,250,111.93,250,250c0,138.077-111.923,250-250,250C111.93,500,0,388.077,0,250C0,111.93,111.93,0,250,0z"
	/>
</g></g><g transform="translate(455,245) scale(0.07,0.07)"><g transform="" style="fill: rgb(0, 0, 0);">
<path d="M250,0c138.077,0,250,111.93,250,250c0,138.077-111.923,250-250,250C111.93,500,0,388.077,0,250C0,111.93,111.93,0,250,0z"
	/>
</g></g><g transform="translate(630,245) scale(0.07,0.07)"><g transform="" style="fill: rgb(0, 0, 0);">
<path d="M250,0c138.077,0,250,111.93,250,250c0,138.077-111.923,250-250,250C111.93,500,0,388.077,0,250C0,111.93,111.93,0,250,0z"
	/>
</g></g><g transform="translate(665,245) scale(0.07,0.07)"><g transform="" style="fill: rgb(0, 0, 0);">
<path d="M250,0c138.077,0,250,111.93,250,250c0,138.077-111.923,250-250,250C111.93,500,0,388.077,0,250C0,111.93,111.93,0,250,0z"
	/>
</g></g><g transform="translate(0,280) scale(0.07,0.07)"><g transform="" style="fill: rgb(0, 0, 0);">
<path d="M250,0c138.077,0,250,111.93,250,250c0,138.077-111.923,250-250,250C111.93,500,0,388.077,0,250C0,111.93,111.93,0,250,0z"
	/>
</g></g><g transform="translate(70,280) scale(0.07,0.07)"><g transform="" style="fill: rgb(0, 0, 0);">
<path d="M250,0c138.077,0,250,111.93,250,250c0,138.077-111.923,250-250,250C111.93,500,0,388.077,0,250C0,111.93,111.93,0,250,0z"
	/>
</g></g><g transform="translate(210,280) scale(0.07,0.07)"><g transform="" style="fill: rgb(0, 0, 0);">
<path d="M250,0c138.077,0,250,111.93,250,250c0,138.077-111.923,250-250,250C111.93,500,0,388.077,0,250C0,111.93,111.93,0,250,0z"
	/>
</g></g><g transform="translate(245,280) scale(0.07,0.07)"><g transform="" style="fill: rgb(0, 0, 0);">
<path d="M250,0c138.077,0,250,111.93,250,250c0,138.077-111.923,250-250,250C111.93,500,0,388.077,0,250C0,111.93,111.93,0,250,0z"
	/>
</g></g><g transform="translate(315,280) scale(0.07,0.07)"><g transform="" style="fill: rgb(0, 0, 0);">
<path d="M250,0c138.077,0,250,111.93,250,250c0,138.077-111.923,250-250,250C111.93,500,0,388.077,0,250C0,111.93,111.93,0,250,0z"
	/>
</g></g><g transform="translate(385,280) scale(0.07,0.07)"><g transform="" style="fill: rgb(0, 0, 0);">
<path d="M250,0c138.077,0,250,111.93,250,250c0,138.077-111.923,250-250,250C111.93,500,0,388.077,0,250C0,111.93,111.93,0,250,0z"
	/>
</g></g><g transform="translate(455,280) scale(0.07,0.07)"><g transform="" style="fill: rgb(0, 0, 0);">
<path d="M250,0c138.077,0,250,111.93,250,250c0,138.077-111.923,250-250,250C111.93,500,0,388.077,0,250C0,111.93,111.93,0,250,0z"
	/>
</g></g><g transform="translate(630,280) scale(0.07,0.07)"><g transform="" style="fill: rgb(0, 0, 0);">
<path d="M250,0c138.077,0,250,111.93,250,250c0,138.077-111.923,250-250,250C111.93,500,0,388.077,0,250C0,111.93,111.93,0,250,0z"
	/>
</g></g><g transform="translate(665,280) scale(0.07,0.07)"><g transform="" style="fill: rgb(0, 0, 0);">
<path d="M250,0c138.077,0,250,111.93,250,250c0,138.077-111.923,250-250,250C111.93,500,0,388.077,0,250C0,111.93,111.93,0,250,0z"
	/>
</g></g><g transform="translate(805,280) scale(0.07,0.07)"><g transform="" style="fill: rgb(0, 0, 0);">
<path d="M250,0c138.077,0,250,111.93,250,250c0,138.077-111.923,250-250,250C111.93,500,0,388.077,0,250C0,111.93,111.93,0,250,0z"
	/>
</g></g><g transform="translate(910,280) scale(0.07,0.07)"><g transform="" style="fill: rgb(0, 0, 0);">
<path d="M250,0c138.077,0,250,111.93,250,250c0,138.077-111.923,250-250,250C111.93,500,0,388.077,0,250C0,111.93,111.93,0,250,0z"
	/>
</g></g><g transform="translate(980,280) scale(0.07,0.07)"><g transform="" style="fill: rgb(0, 0, 0);">
<path d="M250,0c138.077,0,250,111.93,250,250c0,138.077-111.923,250-250,250C111.93,500,0,388.077,0,250C0,111.93,111.93,0,250,0z"
	/>
</g></g><g transform="translate(0,315) scale(0.07,0.07)"><g transform="" style="fill: rgb(0, 0, 0);">
<path d="M250,0c138.077,0,250,111.93,250,250c0,138.077-111.923,250-250,250C111.93,500,0,388.077,0,250C0,111.93,111.93,0,250,0z"
	/>
</g></g><g transform="translate(105,315) scale(0.07,0.07)"><g transform="" style="fill: rgb(0, 0, 0);">
<path d="M250,0c138.077,0,250,111.93,250,250c0,138.077-111.923,250-250,250C111.93,500,0,388.077,0,250C0,111.93,111.93,0,250,0z"
	/>
</g></g><g transform="translate(140,315) scale(0.07,0.07)"><g transform="" style="fill: rgb(0, 0, 0);">
<path d="M250,0c138.077,0,250,111.93,250,250c0,138.077-111.923,250-250,250C111.93,500,0,388.077,0,250C0,111.93,111.93,0,250,0z"
	/>
</g></g><g transform="translate(280,315) scale(0.07,0.07)"><g transform="" style="fill: rgb(0, 0, 0);">
<path d="M250,0c138.077,0,250,111.93,250,250c0,138.077-111.923,250-250,250C111.93,500,0,388.077,0,250C0,111.93,111.93,0,250,0z"
	/>
</g></g><g transform="translate(315,315) scale(0.07,0.07)"><g transform="" style="fill: rgb(0, 0, 0);">
<path d="M250,0c138.077,0,250,111.93,250,250c0,138.077-111.923,250-250,250C111.93,500,0,388.077,0,250C0,111.93,111.93,0,250,0z"
	/>
</g></g><g transform="translate(350,315) scale(0.07,0.07)"><g transform="" style="fill: rgb(0, 0, 0);">
<path d="M250,0c138.077,0,250,111.93,250,250c0,138.077-111.923,250-250,250C111.93,500,0,388.077,0,250C0,111.93,111.93,0,250,0z"
	/>
</g></g><g transform="translate(525,315) scale(0.07,0.07)"><g transform="" style="fill: rgb(0, 0, 0);">
<path d="M250,0c138.077,0,250,111.93,250,250c0,138.077-111.923,250-250,250C111.93,500,0,388.077,0,250C0,111.93,111.93,0,250,0z"
	/>
</g></g><g transform="translate(595,315) scale(0.07,0.07)"><g transform="" style="fill: rgb(0, 0, 0);">
<path d="M250,0c138.077,0,250,111.93,250,250c0,138.077-111.923,250-250,250C111.93,500,0,388.077,0,250C0,111.93,111.93,0,250,0z"
	/>
</g></g><g transform="translate(665,315) scale(0.07,0.07)"><g transform="" style="fill: rgb(0, 0, 0);">
<path d="M250,0c138.077,0,250,111.93,250,250c0,138.077-111.923,250-250,250C111.93,500,0,388.077,0,250C0,111.93,111.93,0,250,0z"
	/>
</g></g><g transform="translate(700,315) scale(0.07,0.07)"><g transform="" style="fill: rgb(0, 0, 0);">
<path d="M250,0c138.077,0,250,111.93,250,250c0,138.077-111.923,250-250,250C111.93,500,0,388.077,0,250C0,111.93,111.93,0,250,0z"
	/>
</g></g><g transform="translate(770,315) scale(0.07,0.07)"><g transform="" style="fill: rgb(0, 0, 0);">
<path d="M250,0c138.077,0,250,111.93,250,250c0,138.077-111.923,250-250,250C111.93,500,0,388.077,0,250C0,111.93,111.93,0,250,0z"
	/>
</g></g><g transform="translate(805,315) scale(0.07,0.07)"><g transform="" style="fill: rgb(0, 0, 0);">
<path d="M250,0c138.077,0,250,111.93,250,250c0,138.077-111.923,250-250,250C111.93,500,0,388.077,0,250C0,111.93,111.93,0,250,0z"
	/>
</g></g><g transform="translate(945,315) scale(0.07,0.07)"><g transform="" style="fill: rgb(0, 0, 0);">
<path d="M250,0c138.077,0,250,111.93,250,250c0,138.077-111.923,250-250,250C111.93,500,0,388.077,0,250C0,111.93,111.93,0,250,0z"
	/>
</g></g><g transform="translate(980,315) scale(0.07,0.07)"><g transform="" style="fill: rgb(0, 0, 0);">
<path d="M250,0c138.077,0,250,111.93,250,250c0,138.077-111.923,250-250,250C111.93,500,0,388.077,0,250C0,111.93,111.93,0,250,0z"
	/>
</g></g><g transform="translate(35,350) scale(0.07,0.07)"><g transform="" style="fill: rgb(0, 0, 0);">
<path d="M250,0c138.077,0,250,111.93,250,250c0,138.077-111.923,250-250,250C111.93,500,0,388.077,0,250C0,111.93,111.93,0,250,0z"
	/>
</g></g><g transform="translate(105,350) scale(0.07,0.07)"><g transform="" style="fill: rgb(0, 0, 0);">
<path d="M250,0c138.077,0,250,111.93,250,250c0,138.077-111.923,250-250,250C111.93,500,0,388.077,0,250C0,111.93,111.93,0,250,0z"
	/>
</g></g><g transform="translate(140,350) scale(0.07,0.07)"><g transform="" style="fill: rgb(0, 0, 0);">
<path d="M250,0c138.077,0,250,111.93,250,250c0,138.077-111.923,250-250,250C111.93,500,0,388.077,0,250C0,111.93,111.93,0,250,0z"
	/>
</g></g><g transform="translate(210,350) scale(0.07,0.07)"><g transform="" style="fill: rgb(0, 0, 0);">
<path d="M250,0c138.077,0,250,111.93,250,250c0,138.077-111.923,250-250,250C111.93,500,0,388.077,0,250C0,111.93,111.93,0,250,0z"
	/>
</g></g><g transform="translate(245,350) scale(0.07,0.07)"><g transform="" style="fill: rgb(0, 0, 0);">
<path d="M250,0c138.077,0,250,111.93,250,250c0,138.077-111.923,250-250,250C111.93,500,0,388.077,0,250C0,111.93,111.93,0,250,0z"
	/>
</g></g><g transform="translate(280,350) scale(0.07,0.07)"><g transform="" style="fill: rgb(0, 0, 0);">
<path d="M250,0c138.077,0,250,111.93,250,250c0,138.077-111.923,250-250,250C111.93,500,0,388.077,0,250C0,111.93,111.93,0,250,0z"
	/>
</g></g><g transform="translate(315,350) scale(0.07,0.07)"><g transform="" style="fill: rgb(0, 0, 0);">
<path d="M250,0c138.077,0,250,111.93,250,250c0,138.077-111.923,250-250,250C111.93,500,0,388.077,0,250C0,111.93,111.93,0,250,0z"
	/>
</g></g><g transform="translate(455,350) scale(0.07,0.07)"><g transform="" style="fill: rgb(0, 0, 0);">
<path d="M250,0c138.077,0,250,111.93,250,250c0,138.077-111.923,250-250,250C111.93,500,0,388.077,0,250C0,111.93,111.93,0,250,0z"
	/>
</g></g><g transform="translate(490,350) scale(0.07,0.07)"><g transform="" style="fill: rgb(0, 0, 0);">
<path d="M250,0c138.077,0,250,111.93,250,250c0,138.077-111.923,250-250,250C111.93,500,0,388.077,0,250C0,111.93,111.93,0,250,0z"
	/>
</g></g><g transform="translate(525,350) scale(0.07,0.07)"><g transform="" style="fill: rgb(0, 0, 0);">
<path d="M250,0c138.077,0,250,111.93,250,250c0,138.077-111.923,250-250,250C111.93,500,0,388.077,0,250C0,111.93,111.93,0,250,0z"
	/>
</g></g><g transform="translate(560,350) scale(0.07,0.07)"><g transform="" style="fill: rgb(0, 0, 0);">
<path d="M250,0c138.077,0,250,111.93,250,250c0,138.077-111.923,250-250,250C111.93,500,0,388.077,0,250C0,111.93,111.93,0,250,0z"
	/>
</g></g><g transform="translate(665,350) scale(0.07,0.07)"><g transform="" style="fill: rgb(0, 0, 0);">
<path d="M250,0c138.077,0,250,111.93,250,250c0,138.077-111.923,250-250,250C111.93,500,0,388.077,0,250C0,111.93,111.93,0,250,0z"
	/>
</g></g><g transform="translate(700,350) scale(0.07,0.07)"><g transform="" style="fill: rgb(0, 0, 0);">
<path d="M250,0c138.077,0,250,111.93,250,250c0,138.077-111.923,250-250,250C111.93,500,0,388.077,0,250C0,111.93,111.93,0,250,0z"
	/>
</g></g><g transform="translate(735,350) scale(0.07,0.07)"><g transform="" style="fill: rgb(0, 0, 0);">
<path d="M250,0c138.077,0,250,111.93,250,250c0,138.077-111.923,250-250,250C111.93,500,0,388.077,0,250C0,111.93,111.93,0,250,0z"
	/>
</g></g><g transform="translate(770,350) scale(0.07,0.07)"><g transform="" style="fill: rgb(0, 0, 0);">
<path d="M250,0c138.077,0,250,111.93,250,250c0,138.077-111.923,250-250,250C111.93,500,0,388.077,0,250C0,111.93,111.93,0,250,0z"
	/>
</g></g><g transform="translate(805,350) scale(0.07,0.07)"><g transform="" style="fill: rgb(0, 0, 0);">
<path d="M250,0c138.077,0,250,111.93,250,250c0,138.077-111.923,250-250,250C111.93,500,0,388.077,0,250C0,111.93,111.93,0,250,0z"
	/>
</g></g><g transform="translate(875,350) scale(0.07,0.07)"><g transform="" style="fill: rgb(0, 0, 0);">
<path d="M250,0c138.077,0,250,111.93,250,250c0,138.077-111.923,250-250,250C111.93,500,0,388.077,0,250C0,111.93,111.93,0,250,0z"
	/>
</g></g><g transform="translate(910,350) scale(0.07,0.07)"><g transform="" style="fill: rgb(0, 0, 0);">
<path d="M250,0c138.077,0,250,111.93,250,250c0,138.077-111.923,250-250,250C111.93,500,0,388.077,0,250C0,111.93,111.93,0,250,0z"
	/>
</g></g><g transform="translate(980,350) scale(0.07,0.07)"><g transform="" style="fill: rgb(0, 0, 0);">
<path d="M250,0c138.077,0,250,111.93,250,250c0,138.077-111.923,250-250,250C111.93,500,0,388.077,0,250C0,111.93,111.93,0,250,0z"
	/>
</g></g><g transform="translate(35,385) scale(0.07,0.07)"><g transform="" style="fill: rgb(0, 0, 0);">
<path d="M250,0c138.077,0,250,111.93,250,250c0,138.077-111.923,250-250,250C111.93,500,0,388.077,0,250C0,111.93,111.93,0,250,0z"
	/>
</g></g><g transform="translate(140,385) scale(0.07,0.07)"><g transform="" style="fill: rgb(0, 0, 0);">
<path d="M250,0c138.077,0,250,111.93,250,250c0,138.077-111.923,250-250,250C111.93,500,0,388.077,0,250C0,111.93,111.93,0,250,0z"
	/>
</g></g><g transform="translate(245,385) scale(0.07,0.07)"><g transform="" style="fill: rgb(0, 0, 0);">
<path d="M250,0c138.077,0,250,111.93,250,250c0,138.077-111.923,250-250,250C111.93,500,0,388.077,0,250C0,111.93,111.93,0,250,0z"
	/>
</g></g><g transform="translate(315,385) scale(0.07,0.07)"><g transform="" style="fill: rgb(0, 0, 0);">
<path d="M250,0c138.077,0,250,111.93,250,250c0,138.077-111.923,250-250,250C111.93,500,0,388.077,0,250C0,111.93,111.93,0,250,0z"
	/>
</g></g><g transform="translate(350,385) scale(0.07,0.07)"><g transform="" style="fill: rgb(0, 0, 0);">
<path d="M250,0c138.077,0,250,111.93,250,250c0,138.077-111.923,250-250,250C111.93,500,0,388.077,0,250C0,111.93,111.93,0,250,0z"
	/>
</g></g><g transform="translate(490,385) scale(0.07,0.07)"><g transform="" style="fill: rgb(0, 0, 0);">
<path d="M250,0c138.077,0,250,111.93,250,250c0,138.077-111.923,250-250,250C111.93,500,0,388.077,0,250C0,111.93,111.93,0,250,0z"
	/>
</g></g><g transform="translate(630,385) scale(0.07,0.07)"><g transform="" style="fill: rgb(0, 0, 0);">
<path d="M250,0c138.077,0,250,111.93,250,250c0,138.077-111.923,250-250,250C111.93,500,0,388.077,0,250C0,111.93,111.93,0,250,0z"
	/>
</g></g><g transform="translate(735,385) scale(0.07,0.07)"><g transform="" style="fill: rgb(0, 0, 0);">
<path d="M250,0c138.077,0,250,111.93,250,250c0,138.077-111.923,250-250,250C111.93,500,0,388.077,0,250C0,111.93,111.93,0,250,0z"
	/>
</g></g><g transform="translate(770,385) scale(0.07,0.07)"><g transform="" style="fill: rgb(0, 0, 0);">
<path d="M250,0c138.077,0,250,111.93,250,250c0,138.077-111.923,250-250,250C111.93,500,0,388.077,0,250C0,111.93,111.93,0,250,0z"
	/>
</g></g><g transform="translate(805,385) scale(0.07,0.07)"><g transform="" style="fill: rgb(0, 0, 0);">
<path d="M250,0c138.077,0,250,111.93,250,250c0,138.077-111.923,250-250,250C111.93,500,0,388.077,0,250C0,111.93,111.93,0,250,0z"
	/>
</g></g><g transform="translate(840,385) scale(0.07,0.07)"><g transform="" style="fill: rgb(0, 0, 0);">
<path d="M250,0c138.077,0,250,111.93,250,250c0,138.077-111.923,250-250,250C111.93,500,0,388.077,0,250C0,111.93,111.93,0,250,0z"
	/>
</g></g><g transform="translate(875,385) scale(0.07,0.07)"><g transform="" style="fill: rgb(0, 0, 0);">
<path d="M250,0c138.077,0,250,111.93,250,250c0,138.077-111.923,250-250,250C111.93,500,0,388.077,0,250C0,111.93,111.93,0,250,0z"
	/>
</g></g><g transform="translate(70,420) scale(0.07,0.07)"><g transform="" style="fill: rgb(0, 0, 0);">
<path d="M250,0c138.077,0,250,111.93,250,250c0,138.077-111.923,250-250,250C111.93,500,0,388.077,0,250C0,111.93,111.93,0,250,0z"
	/>
</g></g><g transform="translate(105,420) scale(0.07,0.07)"><g transform="" style="fill: rgb(0, 0, 0);">
<path d="M250,0c138.077,0,250,111.93,250,250c0,138.077-111.923,250-250,250C111.93,500,0,388.077,0,250C0,111.93,111.93,0,250,0z"
	/>
</g></g><g transform="translate(210,420) scale(0.07,0.07)"><g transform="" style="fill: rgb(0, 0, 0);">
<path d="M250,0c138.077,0,250,111.93,250,250c0,138.077-111.923,250-250,250C111.93,500,0,388.077,0,250C0,111.93,111.93,0,250,0z"
	/>
</g></g><g transform="translate(245,420) scale(0.07,0.07)"><g transform="" style="fill: rgb(0, 0, 0);">
<path d="M250,0c138.077,0,250,111.93,250,250c0,138.077-111.923,250-250,250C111.93,500,0,388.077,0,250C0,111.93,111.93,0,250,0z"
	/>
</g></g><g transform="translate(315,420) scale(0.07,0.07)"><g transform="" style="fill: rgb(0, 0, 0);">
<path d="M250,0c138.077,0,250,111.93,250,250c0,138.077-111.923,250-250,250C111.93,500,0,388.077,0,250C0,111.93,111.93,0,250,0z"
	/>
</g></g><g transform="translate(455,420) scale(0.07,0.07)"><g transform="" style="fill: rgb(0, 0, 0);">
<path d="M250,0c138.077,0,250,111.93,250,250c0,138.077-111.923,250-250,250C111.93,500,0,388.077,0,250C0,111.93,111.93,0,250,0z"
	/>
</g></g><g transform="translate(490,420) scale(0.07,0.07)"><g transform="" style="fill: rgb(0, 0, 0);">
<path d="M250,0c138.077,0,250,111.93,250,250c0,138.077-111.923,250-250,250C111.93,500,0,388.077,0,250C0,111.93,111.93,0,250,0z"
	/>
</g></g><g transform="translate(525,420) scale(0.07,0.07)"><g transform="" style="fill: rgb(0, 0, 0);">
<path d="M250,0c138.077,0,250,111.93,250,250c0,138.077-111.923,250-250,250C111.93,500,0,388.077,0,250C0,111.93,111.93,0,250,0z"
	/>
</g></g><g transform="translate(665,420) scale(0.07,0.07)"><g transform="" style="fill: rgb(0, 0, 0);">
<path d="M250,0c138.077,0,250,111.93,250,250c0,138.077-111.923,250-250,250C111.93,500,0,388.077,0,250C0,111.93,111.93,0,250,0z"
	/>
</g></g><g transform="translate(770,420) scale(0.07,0.07)"><g transform="" style="fill: rgb(0, 0, 0);">
<path d="M250,0c138.077,0,250,111.93,250,250c0,138.077-111.923,250-250,250C111.93,500,0,388.077,0,250C0,111.93,111.93,0,250,0z"
	/>
</g></g><g transform="translate(805,420) scale(0.07,0.07)"><g transform="" style="fill: rgb(0, 0, 0);">
<path d="M250,0c138.077,0,250,111.93,250,250c0,138.077-111.923,250-250,250C111.93,500,0,388.077,0,250C0,111.93,111.93,0,250,0z"
	/>
</g></g><g transform="translate(980,420) scale(0.07,0.07)"><g transform="" style="fill: rgb(0, 0, 0);">
<path d="M250,0c138.077,0,250,111.93,250,250c0,138.077-111.923,250-250,250C111.93,500,0,388.077,0,250C0,111.93,111.93,0,250,0z"
	/>
</g></g><g transform="translate(35,455) scale(0.07,0.07)"><g transform="" style="fill: rgb(0, 0, 0);">
<path d="M250,0c138.077,0,250,111.93,250,250c0,138.077-111.923,250-250,250C111.93,500,0,388.077,0,250C0,111.93,111.93,0,250,0z"
	/>
</g></g><g transform="translate(70,455) scale(0.07,0.07)"><g transform="" style="fill: rgb(0, 0, 0);">
<path d="M250,0c138.077,0,250,111.93,250,250c0,138.077-111.923,250-250,250C111.93,500,0,388.077,0,250C0,111.93,111.93,0,250,0z"
	/>
</g></g><g transform="translate(105,455) scale(0.07,0.07)"><g transform="" style="fill: rgb(0, 0, 0);">
<path d="M250,0c138.077,0,250,111.93,250,250c0,138.077-111.923,250-250,250C111.93,500,0,388.077,0,250C0,111.93,111.93,0,250,0z"
	/>
</g></g><g transform="translate(140,455) scale(0.07,0.07)"><g transform="" style="fill: rgb(0, 0, 0);">
<path d="M250,0c138.077,0,250,111.93,250,250c0,138.077-111.923,250-250,250C111.93,500,0,388.077,0,250C0,111.93,111.93,0,250,0z"
	/>
</g></g><g transform="translate(175,455) scale(0.07,0.07)"><g transform="" style="fill: rgb(0, 0, 0);">
<path d="M250,0c138.077,0,250,111.93,250,250c0,138.077-111.923,250-250,250C111.93,500,0,388.077,0,250C0,111.93,111.93,0,250,0z"
	/>
</g></g><g transform="translate(245,455) scale(0.07,0.07)"><g transform="" style="fill: rgb(0, 0, 0);">
<path d="M250,0c138.077,0,250,111.93,250,250c0,138.077-111.923,250-250,250C111.93,500,0,388.077,0,250C0,111.93,111.93,0,250,0z"
	/>
</g></g><g transform="translate(385,455) scale(0.07,0.07)"><g transform="" style="fill: rgb(0, 0, 0);">
<path d="M250,0c138.077,0,250,111.93,250,250c0,138.077-111.923,250-250,250C111.93,500,0,388.077,0,250C0,111.93,111.93,0,250,0z"
	/>
</g></g><g transform="translate(420,455) scale(0.07,0.07)"><g transform="" style="fill: rgb(0, 0, 0);">
<path d="M250,0c138.077,0,250,111.93,250,250c0,138.077-111.923,250-250,250C111.93,500,0,388.077,0,250C0,111.93,111.93,0,250,0z"
	/>
</g></g><g transform="translate(455,455) scale(0.07,0.07)"><g transform="" style="fill: rgb(0, 0, 0);">
<path d="M250,0c138.077,0,250,111.93,250,250c0,138.077-111.923,250-250,250C111.93,500,0,388.077,0,250C0,111.93,111.93,0,250,0z"
	/>
</g></g><g transform="translate(490,455) scale(0.07,0.07)"><g transform="" style="fill: rgb(0, 0, 0);">
<path d="M250,0c138.077,0,250,111.93,250,250c0,138.077-111.923,250-250,250C111.93,500,0,388.077,0,250C0,111.93,111.93,0,250,0z"
	/>
</g></g><g transform="translate(525,455) scale(0.07,0.07)"><g transform="" style="fill: rgb(0, 0, 0);">
<path d="M250,0c138.077,0,250,111.93,250,250c0,138.077-111.923,250-250,250C111.93,500,0,388.077,0,250C0,111.93,111.93,0,250,0z"
	/>
</g></g><g transform="translate(630,455) scale(0.07,0.07)"><g transform="" style="fill: rgb(0, 0, 0);">
<path d="M250,0c138.077,0,250,111.93,250,250c0,138.077-111.923,250-250,250C111.93,500,0,388.077,0,250C0,111.93,111.93,0,250,0z"
	/>
</g></g><g transform="translate(665,455) scale(0.07,0.07)"><g transform="" style="fill: rgb(0, 0, 0);">
<path d="M250,0c138.077,0,250,111.93,250,250c0,138.077-111.923,250-250,250C111.93,500,0,388.077,0,250C0,111.93,111.93,0,250,0z"
	/>
</g></g><g transform="translate(700,455) scale(0.07,0.07)"><g transform="" style="fill: rgb(0, 0, 0);">
<path d="M250,0c138.077,0,250,111.93,250,250c0,138.077-111.923,250-250,250C111.93,500,0,388.077,0,250C0,111.93,111.93,0,250,0z"
	/>
</g></g><g transform="translate(770,455) scale(0.07,0.07)"><g transform="" style="fill: rgb(0, 0, 0);">
<path d="M250,0c138.077,0,250,111.93,250,250c0,138.077-111.923,250-250,250C111.93,500,0,388.077,0,250C0,111.93,111.93,0,250,0z"
	/>
</g></g><g transform="translate(945,455) scale(0.07,0.07)"><g transform="" style="fill: rgb(0, 0, 0);">
<path d="M250,0c138.077,0,250,111.93,250,250c0,138.077-111.923,250-250,250C111.93,500,0,388.077,0,250C0,111.93,111.93,0,250,0z"
	/>
</g></g><g transform="translate(980,455) scale(0.07,0.07)"><g transform="" style="fill: rgb(0, 0, 0);">
<path d="M250,0c138.077,0,250,111.93,250,250c0,138.077-111.923,250-250,250C111.93,500,0,388.077,0,250C0,111.93,111.93,0,250,0z"
	/>
</g></g><g transform="translate(0,490) scale(0.07,0.07)"><g transform="" style="fill: rgb(0, 0, 0);">
<path d="M250,0c138.077,0,250,111.93,250,250c0,138.077-111.923,250-250,250C111.93,500,0,388.077,0,250C0,111.93,111.93,0,250,0z"
	/>
</g></g><g transform="translate(35,490) scale(0.07,0.07)"><g transform="" style="fill: rgb(0, 0, 0);">
<path d="M250,0c138.077,0,250,111.93,250,250c0,138.077-111.923,250-250,250C111.93,500,0,388.077,0,250C0,111.93,111.93,0,250,0z"
	/>
</g></g><g transform="translate(140,490) scale(0.07,0.07)"><g transform="" style="fill: rgb(0, 0, 0);">
<path d="M250,0c138.077,0,250,111.93,250,250c0,138.077-111.923,250-250,250C111.93,500,0,388.077,0,250C0,111.93,111.93,0,250,0z"
	/>
</g></g><g transform="translate(175,490) scale(0.07,0.07)"><g transform="" style="fill: rgb(0, 0, 0);">
<path d="M250,0c138.077,0,250,111.93,250,250c0,138.077-111.923,250-250,250C111.93,500,0,388.077,0,250C0,111.93,111.93,0,250,0z"
	/>
</g></g><g transform="translate(210,490) scale(0.07,0.07)"><g transform="" style="fill: rgb(0, 0, 0);">
<path d="M250,0c138.077,0,250,111.93,250,250c0,138.077-111.923,250-250,250C111.93,500,0,388.077,0,250C0,111.93,111.93,0,250,0z"
	/>
</g></g><g transform="translate(315,490) scale(0.07,0.07)"><g transform="" style="fill: rgb(0, 0, 0);">
<path d="M250,0c138.077,0,250,111.93,250,250c0,138.077-111.923,250-250,250C111.93,500,0,388.077,0,250C0,111.93,111.93,0,250,0z"
	/>
</g></g><g transform="translate(350,490) scale(0.07,0.07)"><g transform="" style="fill: rgb(0, 0, 0);">
<path d="M250,0c138.077,0,250,111.93,250,250c0,138.077-111.923,250-250,250C111.93,500,0,388.077,0,250C0,111.93,111.93,0,250,0z"
	/>
</g></g><g transform="translate(420,490) scale(0.07,0.07)"><g transform="" style="fill: rgb(0, 0, 0);">
<path d="M250,0c138.077,0,250,111.93,250,250c0,138.077-111.923,250-250,250C111.93,500,0,388.077,0,250C0,111.93,111.93,0,250,0z"
	/>
</g></g><g transform="translate(525,490) scale(0.07,0.07)"><g transform="" style="fill: rgb(0, 0, 0);">
<path d="M250,0c138.077,0,250,111.93,250,250c0,138.077-111.923,250-250,250C111.93,500,0,388.077,0,250C0,111.93,111.93,0,250,0z"
	/>
</g></g><g transform="translate(560,490) scale(0.07,0.07)"><g transform="" style="fill: rgb(0, 0, 0);">
<path d="M250,0c138.077,0,250,111.93,250,250c0,138.077-111.923,250-250,250C111.93,500,0,388.077,0,250C0,111.93,111.93,0,250,0z"
	/>
</g></g><g transform="translate(595,490) scale(0.07,0.07)"><g transform="" style="fill: rgb(0, 0, 0);">
<path d="M250,0c138.077,0,250,111.93,250,250c0,138.077-111.923,250-250,250C111.93,500,0,388.077,0,250C0,111.93,111.93,0,250,0z"
	/>
</g></g><g transform="translate(630,490) scale(0.07,0.07)"><g transform="" style="fill: rgb(0, 0, 0);">
<path d="M250,0c138.077,0,250,111.93,250,250c0,138.077-111.923,250-250,250C111.93,500,0,388.077,0,250C0,111.93,111.93,0,250,0z"
	/>
</g></g><g transform="translate(665,490) scale(0.07,0.07)"><g transform="" style="fill: rgb(0, 0, 0);">
<path d="M250,0c138.077,0,250,111.93,250,250c0,138.077-111.923,250-250,250C111.93,500,0,388.077,0,250C0,111.93,111.93,0,250,0z"
	/>
</g></g><g transform="translate(840,490) scale(0.07,0.07)"><g transform="" style="fill: rgb(0, 0, 0);">
<path d="M250,0c138.077,0,250,111.93,250,250c0,138.077-111.923,250-250,250C111.93,500,0,388.077,0,250C0,111.93,111.93,0,250,0z"
	/>
</g></g><g transform="translate(980,490) scale(0.07,0.07)"><g transform="" style="fill: rgb(0, 0, 0);">
<path d="M250,0c138.077,0,250,111.93,250,250c0,138.077-111.923,250-250,250C111.93,500,0,388.077,0,250C0,111.93,111.93,0,250,0z"
	/>
</g></g><g transform="translate(35,525) scale(0.07,0.07)"><g transform="" style="fill: rgb(0, 0, 0);">
<path d="M250,0c138.077,0,250,111.93,250,250c0,138.077-111.923,250-250,250C111.93,500,0,388.077,0,250C0,111.93,111.93,0,250,0z"
	/>
</g></g><g transform="translate(70,525) scale(0.07,0.07)"><g transform="" style="fill: rgb(0, 0, 0);">
<path d="M250,0c138.077,0,250,111.93,250,250c0,138.077-111.923,250-250,250C111.93,500,0,388.077,0,250C0,111.93,111.93,0,250,0z"
	/>
</g></g><g transform="translate(140,525) scale(0.07,0.07)"><g transform="" style="fill: rgb(0, 0, 0);">
<path d="M250,0c138.077,0,250,111.93,250,250c0,138.077-111.923,250-250,250C111.93,500,0,388.077,0,250C0,111.93,111.93,0,250,0z"
	/>
</g></g><g transform="translate(175,525) scale(0.07,0.07)"><g transform="" style="fill: rgb(0, 0, 0);">
<path d="M250,0c138.077,0,250,111.93,250,250c0,138.077-111.923,250-250,250C111.93,500,0,388.077,0,250C0,111.93,111.93,0,250,0z"
	/>
</g></g><g transform="translate(245,525) scale(0.07,0.07)"><g transform="" style="fill: rgb(0, 0, 0);">
<path d="M250,0c138.077,0,250,111.93,250,250c0,138.077-111.923,250-250,250C111.93,500,0,388.077,0,250C0,111.93,111.93,0,250,0z"
	/>
</g></g><g transform="translate(280,525) scale(0.07,0.07)"><g transform="" style="fill: rgb(0, 0, 0);">
<path d="M250,0c138.077,0,250,111.93,250,250c0,138.077-111.923,250-250,250C111.93,500,0,388.077,0,250C0,111.93,111.93,0,250,0z"
	/>
</g></g><g transform="translate(350,525) scale(0.07,0.07)"><g transform="" style="fill: rgb(0, 0, 0);">
<path d="M250,0c138.077,0,250,111.93,250,250c0,138.077-111.923,250-250,250C111.93,500,0,388.077,0,250C0,111.93,111.93,0,250,0z"
	/>
</g></g><g transform="translate(420,525) scale(0.07,0.07)"><g transform="" style="fill: rgb(0, 0, 0);">
<path d="M250,0c138.077,0,250,111.93,250,250c0,138.077-111.923,250-250,250C111.93,500,0,388.077,0,250C0,111.93,111.93,0,250,0z"
	/>
</g></g><g transform="translate(455,525) scale(0.07,0.07)"><g transform="" style="fill: rgb(0, 0, 0);">
<path d="M250,0c138.077,0,250,111.93,250,250c0,138.077-111.923,250-250,250C111.93,500,0,388.077,0,250C0,111.93,111.93,0,250,0z"
	/>
</g></g><g transform="translate(560,525) scale(0.07,0.07)"><g transform="" style="fill: rgb(0, 0, 0);">
<path d="M250,0c138.077,0,250,111.93,250,250c0,138.077-111.923,250-250,250C111.93,500,0,388.077,0,250C0,111.93,111.93,0,250,0z"
	/>
</g></g><g transform="translate(840,525) scale(0.07,0.07)"><g transform="" style="fill: rgb(0, 0, 0);">
<path d="M250,0c138.077,0,250,111.93,250,250c0,138.077-111.923,250-250,250C111.93,500,0,388.077,0,250C0,111.93,111.93,0,250,0z"
	/>
</g></g><g transform="translate(70,560) scale(0.07,0.07)"><g transform="" style="fill: rgb(0, 0, 0);">
<path d="M250,0c138.077,0,250,111.93,250,250c0,138.077-111.923,250-250,250C111.93,500,0,388.077,0,250C0,111.93,111.93,0,250,0z"
	/>
</g></g><g transform="translate(175,560) scale(0.07,0.07)"><g transform="" style="fill: rgb(0, 0, 0);">
<path d="M250,0c138.077,0,250,111.93,250,250c0,138.077-111.923,250-250,250C111.93,500,0,388.077,0,250C0,111.93,111.93,0,250,0z"
	/>
</g></g><g transform="translate(210,560) scale(0.07,0.07)"><g transform="" style="fill: rgb(0, 0, 0);">
<path d="M250,0c138.077,0,250,111.93,250,250c0,138.077-111.923,250-250,250C111.93,500,0,388.077,0,250C0,111.93,111.93,0,250,0z"
	/>
</g></g><g transform="translate(280,560) scale(0.07,0.07)"><g transform="" style="fill: rgb(0, 0, 0);">
<path d="M250,0c138.077,0,250,111.93,250,250c0,138.077-111.923,250-250,250C111.93,500,0,388.077,0,250C0,111.93,111.93,0,250,0z"
	/>
</g></g><g transform="translate(315,560) scale(0.07,0.07)"><g transform="" style="fill: rgb(0, 0, 0);">
<path d="M250,0c138.077,0,250,111.93,250,250c0,138.077-111.923,250-250,250C111.93,500,0,388.077,0,250C0,111.93,111.93,0,250,0z"
	/>
</g></g><g transform="translate(350,560) scale(0.07,0.07)"><g transform="" style="fill: rgb(0, 0, 0);">
<path d="M250,0c138.077,0,250,111.93,250,250c0,138.077-111.923,250-250,250C111.93,500,0,388.077,0,250C0,111.93,111.93,0,250,0z"
	/>
</g></g><g transform="translate(455,560) scale(0.07,0.07)"><g transform="" style="fill: rgb(0, 0, 0);">
<path d="M250,0c138.077,0,250,111.93,250,250c0,138.077-111.923,250-250,250C111.93,500,0,388.077,0,250C0,111.93,111.93,0,250,0z"
	/>
</g></g><g transform="translate(525,560) scale(0.07,0.07)"><g transform="" style="fill: rgb(0, 0, 0);">
<path d="M250,0c138.077,0,250,111.93,250,250c0,138.077-111.923,250-250,250C111.93,500,0,388.077,0,250C0,111.93,111.93,0,250,0z"
	/>
</g></g><g transform="translate(560,560) scale(0.07,0.07)"><g transform="" style="fill: rgb(0, 0, 0);">
<path d="M250,0c138.077,0,250,111.93,250,250c0,138.077-111.923,250-250,250C111.93,500,0,388.077,0,250C0,111.93,111.93,0,250,0z"
	/>
</g></g><g transform="translate(630,560) scale(0.07,0.07)"><g transform="" style="fill: rgb(0, 0, 0);">
<path d="M250,0c138.077,0,250,111.93,250,250c0,138.077-111.923,250-250,250C111.93,500,0,388.077,0,250C0,111.93,111.93,0,250,0z"
	/>
</g></g><g transform="translate(700,560) scale(0.07,0.07)"><g transform="" style="fill: rgb(0, 0, 0);">
<path d="M250,0c138.077,0,250,111.93,250,250c0,138.077-111.923,250-250,250C111.93,500,0,388.077,0,250C0,111.93,111.93,0,250,0z"
	/>
</g></g><g transform="translate(770,560) scale(0.07,0.07)"><g transform="" style="fill: rgb(0, 0, 0);">
<path d="M250,0c138.077,0,250,111.93,250,250c0,138.077-111.923,250-250,250C111.93,500,0,388.077,0,250C0,111.93,111.93,0,250,0z"
	/>
</g></g><g transform="translate(980,560) scale(0.07,0.07)"><g transform="" style="fill: rgb(0, 0, 0);">
<path d="M250,0c138.077,0,250,111.93,250,250c0,138.077-111.923,250-250,250C111.93,500,0,388.077,0,250C0,111.93,111.93,0,250,0z"
	/>
</g></g><g transform="translate(105,595) scale(0.07,0.07)"><g transform="" style="fill: rgb(0, 0, 0);">
<path d="M250,0c138.077,0,250,111.93,250,250c0,138.077-111.923,250-250,250C111.93,500,0,388.077,0,250C0,111.93,111.93,0,250,0z"
	/>
</g></g><g transform="translate(140,595) scale(0.07,0.07)"><g transform="" style="fill: rgb(0, 0, 0);">
<path d="M250,0c138.077,0,250,111.93,250,250c0,138.077-111.923,250-250,250C111.93,500,0,388.077,0,250C0,111.93,111.93,0,250,0z"
	/>
</g></g><g transform="translate(350,595) scale(0.07,0.07)"><g transform="" style="fill: rgb(0, 0, 0);">
<path d="M250,0c138.077,0,250,111.93,250,250c0,138.077-111.923,250-250,250C111.93,500,0,388.077,0,250C0,111.93,111.93,0,250,0z"
	/>
</g></g><g transform="translate(385,595) scale(0.07,0.07)"><g transform="" style="fill: rgb(0, 0, 0);">
<path d="M250,0c138.077,0,250,111.93,250,250c0,138.077-111.923,250-250,250C111.93,500,0,388.077,0,250C0,111.93,111.93,0,250,0z"
	/>
</g></g><g transform="translate(420,595) scale(0.07,0.07)"><g transform="" style="fill: rgb(0, 0, 0);">
<path d="M250,0c138.077,0,250,111.93,250,250c0,138.077-111.923,250-250,250C111.93,500,0,388.077,0,250C0,111.93,111.93,0,250,0z"
	/>
</g></g><g transform="translate(525,595) scale(0.07,0.07)"><g transform="" style="fill: rgb(0, 0, 0);">
<path d="M250,0c138.077,0,250,111.93,250,250c0,138.077-111.923,250-250,250C111.93,500,0,388.077,0,250C0,111.93,111.93,0,250,0z"
	/>
</g></g><g transform="translate(560,595) scale(0.07,0.07)"><g transform="" style="fill: rgb(0, 0, 0);">
<path d="M250,0c138.077,0,250,111.93,250,250c0,138.077-111.923,250-250,250C111.93,500,0,388.077,0,250C0,111.93,111.93,0,250,0z"
	/>
</g></g><g transform="translate(595,595) scale(0.07,0.07)"><g transform="" style="fill: rgb(0, 0, 0);">
<path d="M250,0c138.077,0,250,111.93,250,250c0,138.077-111.923,250-250,250C111.93,500,0,388.077,0,250C0,111.93,111.93,0,250,0z"
	/>
</g></g><g transform="translate(665,595) scale(0.07,0.07)"><g transform="" style="fill: rgb(0, 0, 0);">
<path d="M250,0c138.077,0,250,111.93,250,250c0,138.077-111.923,250-250,250C111.93,500,0,388.077,0,250C0,111.93,111.93,0,250,0z"
	/>
</g></g><g transform="translate(700,595) scale(0.07,0.07)"><g transform="" style="fill: rgb(0, 0, 0);">
<path d="M250,0c138.077,0,250,111.93,250,250c0,138.077-111.923,250-250,250C111.93,500,0,388.077,0,250C0,111.93,111.93,0,250,0z"
	/>
</g></g><g transform="translate(770,595) scale(0.07,0.07)"><g transform="" style="fill: rgb(0, 0, 0);">
<path d="M250,0c138.077,0,250,111.93,250,250c0,138.077-111.923,250-250,250C111.93,500,0,388.077,0,250C0,111.93,111.93,0,250,0z"
	/>
</g></g><g transform="translate(805,595) scale(0.07,0.07)"><g transform="" style="fill: rgb(0, 0, 0);">
<path d="M250,0c138.077,0,250,111.93,250,250c0,138.077-111.923,250-250,250C111.93,500,0,388.077,0,250C0,111.93,111.93,0,250,0z"
	/>
</g></g><g transform="translate(910,595) scale(0.07,0.07)"><g transform="" style="fill: rgb(0, 0, 0);">
<path d="M250,0c138.077,0,250,111.93,250,250c0,138.077-111.923,250-250,250C111.93,500,0,388.077,0,250C0,111.93,111.93,0,250,0z"
	/>
</g></g><g transform="translate(945,595) scale(0.07,0.07)"><g transform="" style="fill: rgb(0, 0, 0);">
<path d="M250,0c138.077,0,250,111.93,250,250c0,138.077-111.923,250-250,250C111.93,500,0,388.077,0,250C0,111.93,111.93,0,250,0z"
	/>
</g></g><g transform="translate(980,595) scale(0.07,0.07)"><g transform="" style="fill: rgb(0, 0, 0);">
<path d="M250,0c138.077,0,250,111.93,250,250c0,138.077-111.923,250-250,250C111.93,500,0,388.077,0,250C0,111.93,111.93,0,250,0z"
	/>
</g></g><g transform="translate(0,630) scale(0.07,0.07)"><g transform="" style="fill: rgb(0, 0, 0);">
<path d="M250,0c138.077,0,250,111.93,250,250c0,138.077-111.923,250-250,250C111.93,500,0,388.077,0,250C0,111.93,111.93,0,250,0z"
	/>
</g></g><g transform="translate(35,630) scale(0.07,0.07)"><g transform="" style="fill: rgb(0, 0, 0);">
<path d="M250,0c138.077,0,250,111.93,250,250c0,138.077-111.923,250-250,250C111.93,500,0,388.077,0,250C0,111.93,111.93,0,250,0z"
	/>
</g></g><g transform="translate(70,630) scale(0.07,0.07)"><g transform="" style="fill: rgb(0, 0, 0);">
<path d="M250,0c138.077,0,250,111.93,250,250c0,138.077-111.923,250-250,250C111.93,500,0,388.077,0,250C0,111.93,111.93,0,250,0z"
	/>
</g></g><g transform="translate(105,630) scale(0.07,0.07)"><g transform="" style="fill: rgb(0, 0, 0);">
<path d="M250,0c138.077,0,250,111.93,250,250c0,138.077-111.923,250-250,250C111.93,500,0,388.077,0,250C0,111.93,111.93,0,250,0z"
	/>
</g></g><g transform="translate(140,630) scale(0.07,0.07)"><g transform="" style="fill: rgb(0, 0, 0);">
<path d="M250,0c138.077,0,250,111.93,250,250c0,138.077-111.923,250-250,250C111.93,500,0,388.077,0,250C0,111.93,111.93,0,250,0z"
	/>
</g></g><g transform="translate(210,630) scale(0.07,0.07)"><g transform="" style="fill: rgb(0, 0, 0);">
<path d="M250,0c138.077,0,250,111.93,250,250c0,138.077-111.923,250-250,250C111.93,500,0,388.077,0,250C0,111.93,111.93,0,250,0z"
	/>
</g></g><g transform="translate(245,630) scale(0.07,0.07)"><g transform="" style="fill: rgb(0, 0, 0);">
<path d="M250,0c138.077,0,250,111.93,250,250c0,138.077-111.923,250-250,250C111.93,500,0,388.077,0,250C0,111.93,111.93,0,250,0z"
	/>
</g></g><g transform="translate(385,630) scale(0.07,0.07)"><g transform="" style="fill: rgb(0, 0, 0);">
<path d="M250,0c138.077,0,250,111.93,250,250c0,138.077-111.923,250-250,250C111.93,500,0,388.077,0,250C0,111.93,111.93,0,250,0z"
	/>
</g></g><g transform="translate(455,630) scale(0.07,0.07)"><g transform="" style="fill: rgb(0, 0, 0);">
<path d="M250,0c138.077,0,250,111.93,250,250c0,138.077-111.923,250-250,250C111.93,500,0,388.077,0,250C0,111.93,111.93,0,250,0z"
	/>
</g></g><g transform="translate(490,630) scale(0.07,0.07)"><g transform="" style="fill: rgb(0, 0, 0);">
<path d="M250,0c138.077,0,250,111.93,250,250c0,138.077-111.923,250-250,250C111.93,500,0,388.077,0,250C0,111.93,111.93,0,250,0z"
	/>
</g></g><g transform="translate(525,630) scale(0.07,0.07)"><g transform="" style="fill: rgb(0, 0, 0);">
<path d="M250,0c138.077,0,250,111.93,250,250c0,138.077-111.923,250-250,250C111.93,500,0,388.077,0,250C0,111.93,111.93,0,250,0z"
	/>
</g></g><g transform="translate(665,630) scale(0.07,0.07)"><g transform="" style="fill: rgb(0, 0, 0);">
<path d="M250,0c138.077,0,250,111.93,250,250c0,138.077-111.923,250-250,250C111.93,500,0,388.077,0,250C0,111.93,111.93,0,250,0z"
	/>
</g></g><g transform="translate(700,630) scale(0.07,0.07)"><g transform="" style="fill: rgb(0, 0, 0);">
<path d="M250,0c138.077,0,250,111.93,250,250c0,138.077-111.923,250-250,250C111.93,500,0,388.077,0,250C0,111.93,111.93,0,250,0z"
	/>
</g></g><g transform="translate(840,630) scale(0.07,0.07)"><g transform="" style="fill: rgb(0, 0, 0);">
<path d="M250,0c138.077,0,250,111.93,250,250c0,138.077-111.923,250-250,250C111.93,500,0,388.077,0,250C0,111.93,111.93,0,250,0z"
	/>
</g></g><g transform="translate(875,630) scale(0.07,0.07)"><g transform="" style="fill: rgb(0, 0, 0);">
<path d="M250,0c138.077,0,250,111.93,250,250c0,138.077-111.923,250-250,250C111.93,500,0,388.077,0,250C0,111.93,111.93,0,250,0z"
	/>
</g></g><g transform="translate(980,630) scale(0.07,0.07)"><g transform="" style="fill: rgb(0, 0, 0);">
<path d="M250,0c138.077,0,250,111.93,250,250c0,138.077-111.923,250-250,250C111.93,500,0,388.077,0,250C0,111.93,111.93,0,250,0z"
	/>
</g></g><g transform="translate(140,665) scale(0.07,0.07)"><g transform="" style="fill: rgb(0, 0, 0);">
<path d="M250,0c138.077,0,250,111.93,250,250c0,138.077-111.923,250-250,250C111.93,500,0,388.077,0,250C0,111.93,111.93,0,250,0z"
	/>
</g></g><g transform="translate(245,665) scale(0.07,0.07)"><g transform="" style="fill: rgb(0, 0, 0);">
<path d="M250,0c138.077,0,250,111.93,250,250c0,138.077-111.923,250-250,250C111.93,500,0,388.077,0,250C0,111.93,111.93,0,250,0z"
	/>
</g></g><g transform="translate(315,665) scale(0.07,0.07)"><g transform="" style="fill: rgb(0, 0, 0);">
<path d="M250,0c138.077,0,250,111.93,250,250c0,138.077-111.923,250-250,250C111.93,500,0,388.077,0,250C0,111.93,111.93,0,250,0z"
	/>
</g></g><g transform="translate(350,665) scale(0.07,0.07)"><g transform="" style="fill: rgb(0, 0, 0);">
<path d="M250,0c138.077,0,250,111.93,250,250c0,138.077-111.923,250-250,250C111.93,500,0,388.077,0,250C0,111.93,111.93,0,250,0z"
	/>
</g></g><g transform="translate(385,665) scale(0.07,0.07)"><g transform="" style="fill: rgb(0, 0, 0);">
<path d="M250,0c138.077,0,250,111.93,250,250c0,138.077-111.923,250-250,250C111.93,500,0,388.077,0,250C0,111.93,111.93,0,250,0z"
	/>
</g></g><g transform="translate(490,665) scale(0.07,0.07)"><g transform="" style="fill: rgb(0, 0, 0);">
<path d="M250,0c138.077,0,250,111.93,250,250c0,138.077-111.923,250-250,250C111.93,500,0,388.077,0,250C0,111.93,111.93,0,250,0z"
	/>
</g></g><g transform="translate(560,665) scale(0.07,0.07)"><g transform="" style="fill: rgb(0, 0, 0);">
<path d="M250,0c138.077,0,250,111.93,250,250c0,138.077-111.923,250-250,250C111.93,500,0,388.077,0,250C0,111.93,111.93,0,250,0z"
	/>
</g></g><g transform="translate(630,665) scale(0.07,0.07)"><g transform="" style="fill: rgb(0, 0, 0);">
<path d="M250,0c138.077,0,250,111.93,250,250c0,138.077-111.923,250-250,250C111.93,500,0,388.077,0,250C0,111.93,111.93,0,250,0z"
	/>
</g></g><g transform="translate(700,665) scale(0.07,0.07)"><g transform="" style="fill: rgb(0, 0, 0);">
<path d="M250,0c138.077,0,250,111.93,250,250c0,138.077-111.923,250-250,250C111.93,500,0,388.077,0,250C0,111.93,111.93,0,250,0z"
	/>
</g></g><g transform="translate(735,665) scale(0.07,0.07)"><g transform="" style="fill: rgb(0, 0, 0);">
<path d="M250,0c138.077,0,250,111.93,250,250c0,138.077-111.923,250-250,250C111.93,500,0,388.077,0,250C0,111.93,111.93,0,250,0z"
	/>
</g></g><g transform="translate(770,665) scale(0.07,0.07)"><g transform="" style="fill: rgb(0, 0, 0);">
<path d="M250,0c138.077,0,250,111.93,250,250c0,138.077-111.923,250-250,250C111.93,500,0,388.077,0,250C0,111.93,111.93,0,250,0z"
	/>
</g></g><g transform="translate(0,700) scale(0.07,0.07)"><g transform="" style="fill: rgb(0, 0, 0);">
<path d="M250,0c138.077,0,250,111.93,250,250c0,138.077-111.923,250-250,250C111.93,500,0,388.077,0,250C0,111.93,111.93,0,250,0z"
	/>
</g></g><g transform="translate(35,700) scale(0.07,0.07)"><g transform="" style="fill: rgb(0, 0, 0);">
<path d="M250,0c138.077,0,250,111.93,250,250c0,138.077-111.923,250-250,250C111.93,500,0,388.077,0,250C0,111.93,111.93,0,250,0z"
	/>
</g></g><g transform="translate(210,700) scale(0.07,0.07)"><g transform="" style="fill: rgb(0, 0, 0);">
<path d="M250,0c138.077,0,250,111.93,250,250c0,138.077-111.923,250-250,250C111.93,500,0,388.077,0,250C0,111.93,111.93,0,250,0z"
	/>
</g></g><g transform="translate(350,700) scale(0.07,0.07)"><g transform="" style="fill: rgb(0, 0, 0);">
<path d="M250,0c138.077,0,250,111.93,250,250c0,138.077-111.923,250-250,250C111.93,500,0,388.077,0,250C0,111.93,111.93,0,250,0z"
	/>
</g></g><g transform="translate(385,700) scale(0.07,0.07)"><g transform="" style="fill: rgb(0, 0, 0);">
<path d="M250,0c138.077,0,250,111.93,250,250c0,138.077-111.923,250-250,250C111.93,500,0,388.077,0,250C0,111.93,111.93,0,250,0z"
	/>
</g></g><g transform="translate(455,700) scale(0.07,0.07)"><g transform="" style="fill: rgb(0, 0, 0);">
<path d="M250,0c138.077,0,250,111.93,250,250c0,138.077-111.923,250-250,250C111.93,500,0,388.077,0,250C0,111.93,111.93,0,250,0z"
	/>
</g></g><g transform="translate(490,700) scale(0.07,0.07)"><g transform="" style="fill: rgb(0, 0, 0);">
<path d="M250,0c138.077,0,250,111.93,250,250c0,138.077-111.923,250-250,250C111.93,500,0,388.077,0,250C0,111.93,111.93,0,250,0z"
	/>
</g></g><g transform="translate(525,700) scale(0.07,0.07)"><g transform="" style="fill: rgb(0, 0, 0);">
<path d="M250,0c138.077,0,250,111.93,250,250c0,138.077-111.923,250-250,250C111.93,500,0,388.077,0,250C0,111.93,111.93,0,250,0z"
	/>
</g></g><g transform="translate(630,700) scale(0.07,0.07)"><g transform="" style="fill: rgb(0, 0, 0);">
<path d="M250,0c138.077,0,250,111.93,250,250c0,138.077-111.923,250-250,250C111.93,500,0,388.077,0,250C0,111.93,111.93,0,250,0z"
	/>
</g></g><g transform="translate(665,700) scale(0.07,0.07)"><g transform="" style="fill: rgb(0, 0, 0);">
<path d="M250,0c138.077,0,250,111.93,250,250c0,138.077-111.923,250-250,250C111.93,500,0,388.077,0,250C0,111.93,111.93,0,250,0z"
	/>
</g></g><g transform="translate(700,700) scale(0.07,0.07)"><g transform="" style="fill: rgb(0, 0, 0);">
<path d="M250,0c138.077,0,250,111.93,250,250c0,138.077-111.923,250-250,250C111.93,500,0,388.077,0,250C0,111.93,111.93,0,250,0z"
	/>
</g></g><g transform="translate(735,700) scale(0.07,0.07)"><g transform="" style="fill: rgb(0, 0, 0);">
<path d="M250,0c138.077,0,250,111.93,250,250c0,138.077-111.923,250-250,250C111.93,500,0,388.077,0,250C0,111.93,111.93,0,250,0z"
	/>
</g></g><g transform="translate(770,700) scale(0.07,0.07)"><g transform="" style="fill: rgb(0, 0, 0);">
<path d="M250,0c138.077,0,250,111.93,250,250c0,138.077-111.923,250-250,250C111.93,500,0,388.077,0,250C0,111.93,111.93,0,250,0z"
	/>
</g></g><g transform="translate(805,700) scale(0.07,0.07)"><g transform="" style="fill: rgb(0, 0, 0);">
<path d="M250,0c138.077,0,250,111.93,250,250c0,138.077-111.923,250-250,250C111.93,500,0,388.077,0,250C0,111.93,111.93,0,250,0z"
	/>
</g></g><g transform="translate(840,700) scale(0.07,0.07)"><g transform="" style="fill: rgb(0, 0, 0);">
<path d="M250,0c138.077,0,250,111.93,250,250c0,138.077-111.923,250-250,250C111.93,500,0,388.077,0,250C0,111.93,111.93,0,250,0z"
	/>
</g></g><g transform="translate(875,700) scale(0.07,0.07)"><g transform="" style="fill: rgb(0, 0, 0);">
<path d="M250,0c138.077,0,250,111.93,250,250c0,138.077-111.923,250-250,250C111.93,500,0,388.077,0,250C0,111.93,111.93,0,250,0z"
	/>
</g></g><g transform="translate(945,700) scale(0.07,0.07)"><g transform="" style="fill: rgb(0, 0, 0);">
<path d="M250,0c138.077,0,250,111.93,250,250c0,138.077-111.923,250-250,250C111.93,500,0,388.077,0,250C0,111.93,111.93,0,250,0z"
	/>
</g></g><g transform="translate(280,735) scale(0.07,0.07)"><g transform="" style="fill: rgb(0, 0, 0);">
<path d="M250,0c138.077,0,250,111.93,250,250c0,138.077-111.923,250-250,250C111.93,500,0,388.077,0,250C0,111.93,111.93,0,250,0z"
	/>
</g></g><g transform="translate(455,735) scale(0.07,0.07)"><g transform="" style="fill: rgb(0, 0, 0);">
<path d="M250,0c138.077,0,250,111.93,250,250c0,138.077-111.923,250-250,250C111.93,500,0,388.077,0,250C0,111.93,111.93,0,250,0z"
	/>
</g></g><g transform="translate(490,735) scale(0.07,0.07)"><g transform="" style="fill: rgb(0, 0, 0);">
<path d="M250,0c138.077,0,250,111.93,250,250c0,138.077-111.923,250-250,250C111.93,500,0,388.077,0,250C0,111.93,111.93,0,250,0z"
	/>
</g></g><g transform="translate(525,735) scale(0.07,0.07)"><g transform="" style="fill: rgb(0, 0, 0);">
<path d="M250,0c138.077,0,250,111.93,250,250c0,138.077-111.923,250-250,250C111.93,500,0,388.077,0,250C0,111.93,111.93,0,250,0z"
	/>
</g></g><g transform="translate(595,735) scale(0.07,0.07)"><g transform="" style="fill: rgb(0, 0, 0);">
<path d="M250,0c138.077,0,250,111.93,250,250c0,138.077-111.923,250-250,250C111.93,500,0,388.077,0,250C0,111.93,111.93,0,250,0z"
	/>
</g></g><g transform="translate(630,735) scale(0.07,0.07)"><g transform="" style="fill: rgb(0, 0, 0);">
<path d="M250,0c138.077,0,250,111.93,250,250c0,138.077-111.923,250-250,250C111.93,500,0,388.077,0,250C0,111.93,111.93,0,250,0z"
	/>
</g></g><g transform="translate(665,735) scale(0.07,0.07)"><g transform="" style="fill: rgb(0, 0, 0);">
<path d="M250,0c138.077,0,250,111.93,250,250c0,138.077-111.923,250-250,250C111.93,500,0,388.077,0,250C0,111.93,111.93,0,250,0z"
	/>
</g></g><g transform="translate(700,735) scale(0.07,0.07)"><g transform="" style="fill: rgb(0, 0, 0);">
<path d="M250,0c138.077,0,250,111.93,250,250c0,138.077-111.923,250-250,250C111.93,500,0,388.077,0,250C0,111.93,111.93,0,250,0z"
	/>
</g></g><g transform="translate(840,735) scale(0.07,0.07)"><g transform="" style="fill: rgb(0, 0, 0);">
<path d="M250,0c138.077,0,250,111.93,250,250c0,138.077-111.923,250-250,250C111.93,500,0,388.077,0,250C0,111.93,111.93,0,250,0z"
	/>
</g></g><g transform="translate(875,735) scale(0.07,0.07)"><g transform="" style="fill: rgb(0, 0, 0);">
<path d="M250,0c138.077,0,250,111.93,250,250c0,138.077-111.923,250-250,250C111.93,500,0,388.077,0,250C0,111.93,111.93,0,250,0z"
	/>
</g></g><g transform="translate(910,735) scale(0.07,0.07)"><g transform="" style="fill: rgb(0, 0, 0);">
<path d="M250,0c138.077,0,250,111.93,250,250c0,138.077-111.923,250-250,250C111.93,500,0,388.077,0,250C0,111.93,111.93,0,250,0z"
	/>
</g></g><g transform="translate(980,735) scale(0.07,0.07)"><g transform="" style="fill: rgb(0, 0, 0);">
<path d="M250,0c138.077,0,250,111.93,250,250c0,138.077-111.923,250-250,250C111.93,500,0,388.077,0,250C0,111.93,111.93,0,250,0z"
	/>
</g></g><g transform="translate(280,770) scale(0.07,0.07)"><g transform="" style="fill: rgb(0, 0, 0);">
<path d="M250,0c138.077,0,250,111.93,250,250c0,138.077-111.923,250-250,250C111.93,500,0,388.077,0,250C0,111.93,111.93,0,250,0z"
	/>
</g></g><g transform="translate(350,770) scale(0.07,0.07)"><g transform="" style="fill: rgb(0, 0, 0);">
<path d="M250,0c138.077,0,250,111.93,250,250c0,138.077-111.923,250-250,250C111.93,500,0,388.077,0,250C0,111.93,111.93,0,250,0z"
	/>
</g></g><g transform="translate(525,770) scale(0.07,0.07)"><g transform="" style="fill: rgb(0, 0, 0);">
<path d="M250,0c138.077,0,250,111.93,250,250c0,138.077-111.923,250-250,250C111.93,500,0,388.077,0,250C0,111.93,111.93,0,250,0z"
	/>
</g></g><g transform="translate(560,770) scale(0.07,0.07)"><g transform="" style="fill: rgb(0, 0, 0);">
<path d="M250,0c138.077,0,250,111.93,250,250c0,138.077-111.923,250-250,250C111.93,500,0,388.077,0,250C0,111.93,111.93,0,250,0z"
	/>
</g></g><g transform="translate(595,770) scale(0.07,0.07)"><g transform="" style="fill: rgb(0, 0, 0);">
<path d="M250,0c138.077,0,250,111.93,250,250c0,138.077-111.923,250-250,250C111.93,500,0,388.077,0,250C0,111.93,111.93,0,250,0z"
	/>
</g></g><g transform="translate(630,770) scale(0.07,0.07)"><g transform="" style="fill: rgb(0, 0, 0);">
<path d="M250,0c138.077,0,250,111.93,250,250c0,138.077-111.923,250-250,250C111.93,500,0,388.077,0,250C0,111.93,111.93,0,250,0z"
	/>
</g></g><g transform="translate(700,770) scale(0.07,0.07)"><g transform="" style="fill: rgb(0, 0, 0);">
<path d="M250,0c138.077,0,250,111.93,250,250c0,138.077-111.923,250-250,250C111.93,500,0,388.077,0,250C0,111.93,111.93,0,250,0z"
	/>
</g></g><g transform="translate(770,770) scale(0.07,0.07)"><g transform="" style="fill: rgb(0, 0, 0);">
<path d="M250,0c138.077,0,250,111.93,250,250c0,138.077-111.923,250-250,250C111.93,500,0,388.077,0,250C0,111.93,111.93,0,250,0z"
	/>
</g></g><g transform="translate(840,770) scale(0.07,0.07)"><g transform="" style="fill: rgb(0, 0, 0);">
<path d="M250,0c138.077,0,250,111.93,250,250c0,138.077-111.923,250-250,250C111.93,500,0,388.077,0,250C0,111.93,111.93,0,250,0z"
	/>
</g></g><g transform="translate(980,770) scale(0.07,0.07)"><g transform="" style="fill: rgb(0, 0, 0);">
<path d="M250,0c138.077,0,250,111.93,250,250c0,138.077-111.923,250-250,250C111.93,500,0,388.077,0,250C0,111.93,111.93,0,250,0z"
	/>
</g></g><g transform="translate(315,805) scale(0.07,0.07)"><g transform="" style="fill: rgb(0, 0, 0);">
<path d="M250,0c138.077,0,250,111.93,250,250c0,138.077-111.923,250-250,250C111.93,500,0,388.077,0,250C0,111.93,111.93,0,250,0z"
	/>
</g></g><g transform="translate(455,805) scale(0.07,0.07)"><g transform="" style="fill: rgb(0, 0, 0);">
<path d="M250,0c138.077,0,250,111.93,250,250c0,138.077-111.923,250-250,250C111.93,500,0,388.077,0,250C0,111.93,111.93,0,250,0z"
	/>
</g></g><g transform="translate(525,805) scale(0.07,0.07)"><g transform="" style="fill: rgb(0, 0, 0);">
<path d="M250,0c138.077,0,250,111.93,250,250c0,138.077-111.923,250-250,250C111.93,500,0,388.077,0,250C0,111.93,111.93,0,250,0z"
	/>
</g></g><g transform="translate(665,805) scale(0.07,0.07)"><g transform="" style="fill: rgb(0, 0, 0);">
<path d="M250,0c138.077,0,250,111.93,250,250c0,138.077-111.923,250-250,250C111.93,500,0,388.077,0,250C0,111.93,111.93,0,250,0z"
	/>
</g></g><g transform="translate(700,805) scale(0.07,0.07)"><g transform="" style="fill: rgb(0, 0, 0);">
<path d="M250,0c138.077,0,250,111.93,250,250c0,138.077-111.923,250-250,250C111.93,500,0,388.077,0,250C0,111.93,111.93,0,250,0z"
	/>
</g></g><g transform="translate(840,805) scale(0.07,0.07)"><g transform="" style="fill: rgb(0, 0, 0);">
<path d="M250,0c138.077,0,250,111.93,250,250c0,138.077-111.923,250-250,250C111.93,500,0,388.077,0,250C0,111.93,111.93,0,250,0z"
	/>
</g></g><g transform="translate(945,805) scale(0.07,0.07)"><g transform="" style="fill: rgb(0, 0, 0);">
<path d="M250,0c138.077,0,250,111.93,250,250c0,138.077-111.923,250-250,250C111.93,500,0,388.077,0,250C0,111.93,111.93,0,250,0z"
	/>
</g></g><g transform="translate(980,805) scale(0.07,0.07)"><g transform="" style="fill: rgb(0, 0, 0);">
<path d="M250,0c138.077,0,250,111.93,250,250c0,138.077-111.923,250-250,250C111.93,500,0,388.077,0,250C0,111.93,111.93,0,250,0z"
	/>
</g></g><g transform="translate(385,840) scale(0.07,0.07)"><g transform="" style="fill: rgb(0, 0, 0);">
<path d="M250,0c138.077,0,250,111.93,250,250c0,138.077-111.923,250-250,250C111.93,500,0,388.077,0,250C0,111.93,111.93,0,250,0z"
	/>
</g></g><g transform="translate(455,840) scale(0.07,0.07)"><g transform="" style="fill: rgb(0, 0, 0);">
<path d="M250,0c138.077,0,250,111.93,250,250c0,138.077-111.923,250-250,250C111.93,500,0,388.077,0,250C0,111.93,111.93,0,250,0z"
	/>
</g></g><g transform="translate(525,840) scale(0.07,0.07)"><g transform="" style="fill: rgb(0, 0, 0);">
<path d="M250,0c138.077,0,250,111.93,250,250c0,138.077-111.923,250-250,250C111.93,500,0,388.077,0,250C0,111.93,111.93,0,250,0z"
	/>
</g></g><g transform="translate(560,840) scale(0.07,0.07)"><g transform="" style="fill: rgb(0, 0, 0);">
<path d="M250,0c138.077,0,250,111.93,250,250c0,138.077-111.923,250-250,250C111.93,500,0,388.077,0,250C0,111.93,111.93,0,250,0z"
	/>
</g></g><g transform="translate(665,840) scale(0.07,0.07)"><g transform="" style="fill: rgb(0, 0, 0);">
<path d="M250,0c138.077,0,250,111.93,250,250c0,138.077-111.923,250-250,250C111.93,500,0,388.077,0,250C0,111.93,111.93,0,250,0z"
	/>
</g></g><g transform="translate(700,840) scale(0.07,0.07)"><g transform="" style="fill: rgb(0, 0, 0);">
<path d="M250,0c138.077,0,250,111.93,250,250c0,138.077-111.923,250-250,250C111.93,500,0,388.077,0,250C0,111.93,111.93,0,250,0z"
	/>
</g></g><g transform="translate(735,840) scale(0.07,0.07)"><g transform="" style="fill: rgb(0, 0, 0);">
<path d="M250,0c138.077,0,250,111.93,250,250c0,138.077-111.923,250-250,250C111.93,500,0,388.077,0,250C0,111.93,111.93,0,250,0z"
	/>
</g></g><g transform="translate(770,840) scale(0.07,0.07)"><g transform="" style="fill: rgb(0, 0, 0);">
<path d="M250,0c138.077,0,250,111.93,250,250c0,138.077-111.923,250-250,250C111.93,500,0,388.077,0,250C0,111.93,111.93,0,250,0z"
	/>
</g></g><g transform="translate(805,840) scale(0.07,0.07)"><g transform="" style="fill: rgb(0, 0, 0);">
<path d="M250,0c138.077,0,250,111.93,250,250c0,138.077-111.923,250-250,250C111.93,500,0,388.077,0,250C0,111.93,111.93,0,250,0z"
	/>
</g></g><g transform="translate(840,840) scale(0.07,0.07)"><g transform="" style="fill: rgb(0, 0, 0);">
<path d="M250,0c138.077,0,250,111.93,250,250c0,138.077-111.923,250-250,250C111.93,500,0,388.077,0,250C0,111.93,111.93,0,250,0z"
	/>
</g></g><g transform="translate(875,840) scale(0.07,0.07)"><g transform="" style="fill: rgb(0, 0, 0);">
<path d="M250,0c138.077,0,250,111.93,250,250c0,138.077-111.923,250-250,250C111.93,500,0,388.077,0,250C0,111.93,111.93,0,250,0z"
	/>
</g></g><g transform="translate(945,840) scale(0.07,0.07)"><g transform="" style="fill: rgb(0, 0, 0);">
<path d="M250,0c138.077,0,250,111.93,250,250c0,138.077-111.923,250-250,250C111.93,500,0,388.077,0,250C0,111.93,111.93,0,250,0z"
	/>
</g></g><g transform="translate(980,840) scale(0.07,0.07)"><g transform="" style="fill: rgb(0, 0, 0);">
<path d="M250,0c138.077,0,250,111.93,250,250c0,138.077-111.923,250-250,250C111.93,500,0,388.077,0,250C0,111.93,111.93,0,250,0z"
	/>
</g></g><g transform="translate(350,875) scale(0.07,0.07)"><g transform="" style="fill: rgb(0, 0, 0);">
<path d="M250,0c138.077,0,250,111.93,250,250c0,138.077-111.923,250-250,250C111.93,500,0,388.077,0,250C0,111.93,111.93,0,250,0z"
	/>
</g></g><g transform="translate(385,875) scale(0.07,0.07)"><g transform="" style="fill: rgb(0, 0, 0);">
<path d="M250,0c138.077,0,250,111.93,250,250c0,138.077-111.923,250-250,250C111.93,500,0,388.077,0,250C0,111.93,111.93,0,250,0z"
	/>
</g></g><g transform="translate(420,875) scale(0.07,0.07)"><g transform="" style="fill: rgb(0, 0, 0);">
<path d="M250,0c138.077,0,250,111.93,250,250c0,138.077-111.923,250-250,250C111.93,500,0,388.077,0,250C0,111.93,111.93,0,250,0z"
	/>
</g></g><g transform="translate(525,875) scale(0.07,0.07)"><g transform="" style="fill: rgb(0, 0, 0);">
<path d="M250,0c138.077,0,250,111.93,250,250c0,138.077-111.923,250-250,250C111.93,500,0,388.077,0,250C0,111.93,111.93,0,250,0z"
	/>
</g></g><g transform="translate(560,875) scale(0.07,0.07)"><g transform="" style="fill: rgb(0, 0, 0);">
<path d="M250,0c138.077,0,250,111.93,250,250c0,138.077-111.923,250-250,250C111.93,500,0,388.077,0,250C0,111.93,111.93,0,250,0z"
	/>
</g></g><g transform="translate(735,875) scale(0.07,0.07)"><g transform="" style="fill: rgb(0, 0, 0);">
<path d="M250,0c138.077,0,250,111.93,250,250c0,138.077-111.923,250-250,250C111.93,500,0,388.077,0,250C0,111.93,111.93,0,250,0z"
	/>
</g></g><g transform="translate(840,875) scale(0.07,0.07)"><g transform="" style="fill: rgb(0, 0, 0);">
<path d="M250,0c138.077,0,250,111.93,250,250c0,138.077-111.923,250-250,250C111.93,500,0,388.077,0,250C0,111.93,111.93,0,250,0z"
	/>
</g></g><g transform="translate(875,875) scale(0.07,0.07)"><g transform="" style="fill: rgb(0, 0, 0);">
<path d="M250,0c138.077,0,250,111.93,250,250c0,138.077-111.923,250-250,250C111.93,500,0,388.077,0,250C0,111.93,111.93,0,250,0z"
	/>
</g></g><g transform="translate(910,875) scale(0.07,0.07)"><g transform="" style="fill: rgb(0, 0, 0);">
<path d="M250,0c138.077,0,250,111.93,250,250c0,138.077-111.923,250-250,250C111.93,500,0,388.077,0,250C0,111.93,111.93,0,250,0z"
	/>
</g></g><g transform="translate(980,875) scale(0.07,0.07)"><g transform="" style="fill: rgb(0, 0, 0);">
<path d="M250,0c138.077,0,250,111.93,250,250c0,138.077-111.923,250-250,250C111.93,500,0,388.077,0,250C0,111.93,111.93,0,250,0z"
	/>
</g></g><g transform="translate(280,910) scale(0.07,0.07)"><g transform="" style="fill: rgb(0, 0, 0);">
<path d="M250,0c138.077,0,250,111.93,250,250c0,138.077-111.923,250-250,250C111.93,500,0,388.077,0,250C0,111.93,111.93,0,250,0z"
	/>
</g></g><g transform="translate(385,910) scale(0.07,0.07)"><g transform="" style="fill: rgb(0, 0, 0);">
<path d="M250,0c138.077,0,250,111.93,250,250c0,138.077-111.923,250-250,250C111.93,500,0,388.077,0,250C0,111.93,111.93,0,250,0z"
	/>
</g></g><g transform="translate(420,910) scale(0.07,0.07)"><g transform="" style="fill: rgb(0, 0, 0);">
<path d="M250,0c138.077,0,250,111.93,250,250c0,138.077-111.923,250-250,250C111.93,500,0,388.077,0,250C0,111.93,111.93,0,250,0z"
	/>
</g></g><g transform="translate(525,910) scale(0.07,0.07)"><g transform="" style="fill: rgb(0, 0, 0);">
<path d="M250,0c138.077,0,250,111.93,250,250c0,138.077-111.923,250-250,250C111.93,500,0,388.077,0,250C0,111.93,111.93,0,250,0z"
	/>
</g></g><g transform="translate(560,910) scale(0.07,0.07)"><g transform="" style="fill: rgb(0, 0, 0);">
<path d="M250,0c138.077,0,250,111.93,250,250c0,138.077-111.923,250-250,250C111.93,500,0,388.077,0,250C0,111.93,111.93,0,250,0z"
	/>
</g></g><g transform="translate(595,910) scale(0.07,0.07)"><g transform="" style="fill: rgb(0, 0, 0);">
<path d="M250,0c138.077,0,250,111.93,250,250c0,138.077-111.923,250-250,250C111.93,500,0,388.077,0,250C0,111.93,111.93,0,250,0z"
	/>
</g></g><g transform="translate(700,910) scale(0.07,0.07)"><g transform="" style="fill: rgb(0, 0, 0);">
<path d="M250,0c138.077,0,250,111.93,250,250c0,138.077-111.923,250-250,250C111.93,500,0,388.077,0,250C0,111.93,111.93,0,250,0z"
	/>
</g></g><g transform="translate(840,910) scale(0.07,0.07)"><g transform="" style="fill: rgb(0, 0, 0);">
<path d="M250,0c138.077,0,250,111.93,250,250c0,138.077-111.923,250-250,250C111.93,500,0,388.077,0,250C0,111.93,111.93,0,250,0z"
	/>
</g></g><g transform="translate(945,910) scale(0.07,0.07)"><g transform="" style="fill: rgb(0, 0, 0);">
<path d="M250,0c138.077,0,250,111.93,250,250c0,138.077-111.923,250-250,250C111.93,500,0,388.077,0,250C0,111.93,111.93,0,250,0z"
	/>
</g></g><g transform="translate(980,910) scale(0.07,0.07)"><g transform="" style="fill: rgb(0, 0, 0);">
<path d="M250,0c138.077,0,250,111.93,250,250c0,138.077-111.923,250-250,250C111.93,500,0,388.077,0,250C0,111.93,111.93,0,250,0z"
	/>
</g></g><g transform="translate(315,945) scale(0.07,0.07)"><g transform="" style="fill: rgb(0, 0, 0);">
<path d="M250,0c138.077,0,250,111.93,250,250c0,138.077-111.923,250-250,250C111.93,500,0,388.077,0,250C0,111.93,111.93,0,250,0z"
	/>
</g></g><g transform="translate(385,945) scale(0.07,0.07)"><g transform="" style="fill: rgb(0, 0, 0);">
<path d="M250,0c138.077,0,250,111.93,250,250c0,138.077-111.923,250-250,250C111.93,500,0,388.077,0,250C0,111.93,111.93,0,250,0z"
	/>
</g></g><g transform="translate(455,945) scale(0.07,0.07)"><g transform="" style="fill: rgb(0, 0, 0);">
<path d="M250,0c138.077,0,250,111.93,250,250c0,138.077-111.923,250-250,250C111.93,500,0,388.077,0,250C0,111.93,111.93,0,250,0z"
	/>
</g></g><g transform="translate(630,945) scale(0.07,0.07)"><g transform="" style="fill: rgb(0, 0, 0);">
<path d="M250,0c138.077,0,250,111.93,250,250c0,138.077-111.923,250-250,250C111.93,500,0,388.077,0,250C0,111.93,111.93,0,250,0z"
	/>
</g></g><g transform="translate(700,945) scale(0.07,0.07)"><g transform="" style="fill: rgb(0, 0, 0);">
<path d="M250,0c138.077,0,250,111.93,250,250c0,138.077-111.923,250-250,250C111.93,500,0,388.077,0,250C0,111.93,111.93,0,250,0z"
	/>
</g></g><g transform="translate(735,945) scale(0.07,0.07)"><g transform="" style="fill: rgb(0, 0, 0);">
<path d="M250,0c138.077,0,250,111.93,250,250c0,138.077-111.923,250-250,250C111.93,500,0,388.077,0,250C0,111.93,111.93,0,250,0z"
	/>
</g></g><g transform="translate(875,945) scale(0.07,0.07)"><g transform="" style="fill: rgb(0, 0, 0);">
<path d="M250,0c138.077,0,250,111.93,250,250c0,138.077-111.923,250-250,250C111.93,500,0,388.077,0,250C0,111.93,111.93,0,250,0z"
	/>
</g></g><g transform="translate(280,980) scale(0.07,0.07)"><g transform="" style="fill: rgb(0, 0, 0);">
<path d="M250,0c138.077,0,250,111.93,250,250c0,138.077-111.923,250-250,250C111.93,500,0,388.077,0,250C0,111.93,111.93,0,250,0z"
	/>
</g></g><g transform="translate(350,980) scale(0.07,0.07)"><g transform="" style="fill: rgb(0, 0, 0);">
<path d="M250,0c138.077,0,250,111.93,250,250c0,138.077-111.923,250-250,250C111.93,500,0,388.077,0,250C0,111.93,111.93,0,250,0z"
	/>
</g></g><g transform="translate(385,980) scale(0.07,0.07)"><g transform="" style="fill: rgb(0, 0, 0);">
<path d="M250,0c138.077,0,250,111.93,250,250c0,138.077-111.923,250-250,250C111.93,500,0,388.077,0,250C0,111.93,111.93,0,250,0z"
	/>
</g></g><g transform="translate(420,980) scale(0.07,0.07)"><g transform="" style="fill: rgb(0, 0, 0);">
<path d="M250,0c138.077,0,250,111.93,250,250c0,138.077-111.923,250-250,250C111.93,500,0,388.077,0,250C0,111.93,111.93,0,250,0z"
	/>
</g></g><g transform="translate(455,980) scale(0.07,0.07)"><g transform="" style="fill: rgb(0, 0, 0);">
<path d="M250,0c138.077,0,250,111.93,250,250c0,138.077-111.923,250-250,250C111.93,500,0,388.077,0,250C0,111.93,111.93,0,250,0z"
	/>
</g></g><g transform="translate(490,980) scale(0.07,0.07)"><g transform="" style="fill: rgb(0, 0, 0);">
<path d="M250,0c138.077,0,250,111.93,250,250c0,138.077-111.923,250-250,250C111.93,500,0,388.077,0,250C0,111.93,111.93,0,250,0z"
	/>
</g></g><g transform="translate(525,980) scale(0.07,0.07)"><g transform="" style="fill: rgb(0, 0, 0);">
<path d="M250,0c138.077,0,250,111.93,250,250c0,138.077-111.923,250-250,250C111.93,500,0,388.077,0,250C0,111.93,111.93,0,250,0z"
	/>
</g></g><g transform="translate(630,980) scale(0.07,0.07)"><g transform="" style="fill: rgb(0, 0, 0);">
<path d="M250,0c138.077,0,250,111.93,250,250c0,138.077-111.923,250-250,250C111.93,500,0,388.077,0,250C0,111.93,111.93,0,250,0z"
	/>
</g></g><g transform="translate(700,980) scale(0.07,0.07)"><g transform="" style="fill: rgb(0, 0, 0);">
<path d="M250,0c138.077,0,250,111.93,250,250c0,138.077-111.923,250-250,250C111.93,500,0,388.077,0,250C0,111.93,111.93,0,250,0z"
	/>
</g></g><g transform="translate(770,980) scale(0.07,0.07)"><g transform="" style="fill: rgb(0, 0, 0);">
<path d="M250,0c138.077,0,250,111.93,250,250c0,138.077-111.923,250-250,250C111.93,500,0,388.077,0,250C0,111.93,111.93,0,250,0z"
	/>
</g></g><g transform="translate(805,980) scale(0.07,0.07)"><g transform="" style="fill: rgb(0, 0, 0);">
<path d="M250,0c138.077,0,250,111.93,250,250c0,138.077-111.923,250-250,250C111.93,500,0,388.077,0,250C0,111.93,111.93,0,250,0z"
	/>
</g></g><g transform="translate(840,980) scale(0.07,0.07)"><g transform="" style="fill: rgb(0, 0, 0);">
<path d="M250,0c138.077,0,250,111.93,250,250c0,138.077-111.923,250-250,250C111.93,500,0,388.077,0,250C0,111.93,111.93,0,250,0z"
	/>
</g></g><g transform="translate(980,980) scale(0.07,0.07)"><g transform="" style="fill: rgb(0, 0, 0);">
<path d="M250,0c138.077,0,250,111.93,250,250c0,138.077-111.923,250-250,250C111.93,500,0,388.077,0,250C0,111.93,111.93,0,250,0z"
	/>
</g></g><g transform="translate(0,0) scale(2.45, 2.45)"><g transform=" translate(0,100) scale(1,-1) " style="fill: rgb(0, 0, 0);">
<g>
	<path style="fill:none;" d="M33.78,85H85V15H15.004l0.016,50.855C15.02,76.414,23.436,85,33.78,85z"/>
	<path d="M100,100V65.859V34.141C100,25.65,100,0,100,0S76.46,0,66.25,0H0l0.02,65.859C0.02,84.68,15.16,100,33.78,100h32.47H100z
		 M85,85H33.78c-10.344,0-18.76-8.586-18.76-19.145L15.004,15H85V85z"/>
</g>
</g></g><g transform="translate(770,0) scale(2.45, 2.45)"><g transform=" translate(0,100) scale(1,-1)  translate(100, 0) scale(-1,1) " style="fill: rgb(0, 0, 0);">
<g>
	<path style="fill:none;" d="M33.78,85H85V15H15.004l0.016,50.855C15.02,76.414,23.436,85,33.78,85z"/>
	<path d="M100,100V65.859V34.141C100,25.65,100,0,100,0S76.46,0,66.25,0H0l0.02,65.859C0.02,84.68,15.16,100,33.78,100h32.47H100z
		 M85,85H33.78c-10.344,0-18.76-8.586-18.76-19.145L15.004,15H85V85z"/>
</g>
</g></g><g transform="translate(0,770) scale(2.45, 2.45)"><g transform="" style="fill: rgb(0, 0, 0);">
<g>
	<path style="fill:none;" d="M33.78,85H85V15H15.004l0.016,50.855C15.02,76.414,23.436,85,33.78,85z"/>
	<path d="M100,100V65.859V34.141C100,25.65,100,0,100,0S76.46,0,66.25,0H0l0.02,65.859C0.02,84.68,15.16,100,33.78,100h32.47H100z
		 M85,85H33.78c-10.344,0-18.76-8.586-18.76-19.145L15.004,15H85V85z"/>
</g>
</g></g><g transform="translate(70,70) scale(1.05, 1.05)"><g transform="" style="fill: rgb(0, 0, 0);">
<g>
	<g id="XMLID_1_">
		<g>
			<path d="M27.351,100c-15.09,0-27.365-12.032-27.365-26.808V26.794c0-4.616,1.2-8.96,3.301-12.761
				c2.029-3.658,4.901-6.802,8.36-9.174C16.09,1.801,21.506,0,27.336,0h45.327c15.076,0,27.351,12.018,27.351,26.793v46.398
				c0,14.775-12.274,26.808-27.351,26.808H50H27.351z"/>
		</g>
		<g>
		</g>
	</g>
</g>
</g></g><g transform="translate(840,70) scale(1.05, 1.05)"><g transform="" style="fill: rgb(0, 0, 0);">
<g>
	<g id="XMLID_1_">
		<g>
			<path d="M27.351,100c-15.09,0-27.365-12.032-27.365-26.808V26.794c0-4.616,1.2-8.96,3.301-12.761
				c2.029-3.658,4.901-6.802,8.36-9.174C16.09,1.801,21.506,0,27.336,0h45.327c15.076,0,27.351,12.018,27.351,26.793v46.398
				c0,14.775-12.274,26.808-27.351,26.808H50H27.351z"/>
		</g>
		<g>
		</g>
	</g>
</g>
</g></g><g transform="translate(70,840) scale(1.05, 1.05)"><g transform="" style="fill: rgb(0, 0, 0);">
<g>
	<g id="XMLID_1_">
		<g>
			<path d="M27.351,100c-15.09,0-27.365-12.032-27.365-26.808V26.794c0-4.616,1.2-8.96,3.301-12.761
				c2.029-3.658,4.901-6.802,8.36-9.174C16.09,1.801,21.506,0,27.336,0h45.327c15.076,0,27.351,12.018,27.351,26.793v46.398
				c0,14.775-12.274,26.808-27.351,26.808H50H27.351z"/>
		</g>
		<g>
		</g>
	</g>
</g>
</g></g></g></svg>