<?xml version="1.0" encoding="utf-8"?>
<!-- Generator: Adobe Illustrator 24.1.2, SVG Export Plug-In . SVG Version: 6.00 Build 0)  -->
<svg version="1.1" id="Слой_1" xmlns="http://www.w3.org/2000/svg" xmlns:xlink="http://www.w3.org/1999/xlink" x="0px" y="0px"
	 viewBox="0 0 300 271.8" style="enable-background:new 0 0 300 271.8;" xml:space="preserve">
<path d="M119.6,1.3c7,2.9,11.6,9.7,11.6,17.3v46.9h65.6c56.9,0,103.1,46.2,103.1,103.1c0,66.4-47.7,96-58.7,102
	c-1.5,0.8-3.1,1.1-4.7,1.1c-6.4,0-11.5-5.2-11.5-11.5c0-4.4,2.5-8.4,5.7-11.4c5.5-5.2,13-15.5,13-33.2c0-31.1-25.2-56.2-56.2-56.2
	h-56.2v46.9c0,7.6-4.6,14.4-11.6,17.3s-15.1,1.3-20.4-4L5.5,125.8c-7.3-7.3-7.3-19.2,0-26.5L99.2,5.5c5.4-5.4,13.4-7,20.4-4V1.3z"/>
</svg>
