<?xml version="1.0" encoding="utf-8"?>
<!-- Generator: Adobe Illustrator 24.1.2, SVG Export Plug-In . SVG Version: 6.00 Build 0)  -->
<svg version="1.1" id="Слой_1" xmlns="http://www.w3.org/2000/svg" xmlns:xlink="http://www.w3.org/1999/xlink" x="0px" y="0px"
	 viewBox="0 0 100 100" style="enable-background:new 0 0 100 100;" xml:space="preserve">
<style type="text/css">
	.st0{stroke:#000000;stroke-width:2;stroke-miterlimit:10;}
</style>
<path class="st0" d="M47.41,62.87v-7.73c0-2.15,0.75-3.97,2.25-5.47c1.5-1.5,3.33-2.25,5.47-2.25h7.73L47.41,62.87z M47.41,83.6
	V72.66l25.24-25.24H83.6L47.41,83.6z M47.67,93.26l45.47-45.59c1.37,0.34,2.55,1.01,3.54,2c0.99,0.99,1.65,2.17,2,3.54L53.08,98.67
	c-1.37-0.43-2.51-1.09-3.41-2C48.76,95.77,48.1,94.64,47.67,93.26z M62.74,98.93l36.19-36.19v10.95L73.69,98.93H62.74z M83.47,98.93
	l15.46-15.46v7.73c0,2.15-0.75,3.97-2.25,5.47c-1.5,1.5-3.33,2.25-5.47,2.25H83.47z M92.62,37.11H81.93
	c-2.23-7.56-6.48-13.74-12.75-18.55s-13.52-7.21-21.77-7.21c-10.05,0-18.57,3.5-25.57,10.5s-10.5,15.52-10.5,25.57
	c0,6.18,1.4,11.85,4.19,17s6.55,9.36,11.27,12.62V62.87h10.3v30.91H6.19v-10.3H18.3c-5.32-4.29-9.53-9.55-12.62-15.78
	S1.04,54.71,1.04,47.41c0-6.44,1.22-12.47,3.67-18.1s5.75-10.52,9.92-14.68s9.06-7.47,14.68-9.92s11.66-3.67,18.1-3.67
	c11.08,0,20.8,3.41,29.17,10.24S90.3,26.72,92.62,37.11z"/>
</svg>
