<?xml version="1.0" encoding="utf-8"?>
<!-- Generator: Adobe Illustrator 24.1.2, SVG Export Plug-In . SVG Version: 6.00 Build 0)  -->
<svg version="1.1" id="Слой_1" xmlns="http://www.w3.org/2000/svg" xmlns:xlink="http://www.w3.org/1999/xlink" x="0px" y="0px"
	 viewBox="0 0 100 100" style="enable-background:new 0 0 100 100;" xml:space="preserve">
<style type="text/css">
	.st0{fill:#FFFFFF;}
</style>
<g>
	<path d="M87,9v82H63V9H87 M91,0H59c-2.76,0-5,2.24-5,5v90c0,2.76,2.24,5,5,5h32c2.76,0,5-2.24,5-5V5C96,2.24,93.76,0,91,0L91,0z"/>
</g>
<g>
	<path d="M37,9v82H13V9H37 M41,0H9C6.24,0,4,2.24,4,5v90c0,2.76,2.24,5,5,5h32c2.76,0,5-2.24,5-5V5C46,2.24,43.76,0,41,0L41,0z"/>
</g>
<g>
	<polygon class="st0" points="24.13,49.5 70.5,31.32 70.5,67.68 	"/>
	<path d="M66,37.92v23.16L36.46,49.5L66,37.92 M73,25.66c-0.24,0-0.49,0.04-0.73,0.14L16.55,47.64c-1.69,0.66-1.69,3.06,0,3.72
		L72.27,73.2c0.24,0.1,0.49,0.14,0.73,0.14c1.06,0,2-0.85,2-2V27.66C75,26.51,74.06,25.66,73,25.66L73,25.66z"/>
</g>
</svg>
