<?xml version="1.0" encoding="utf-8"?>
<!-- Generator: Adobe Illustrator 24.1.2, SVG Export Plug-In . SVG Version: 6.00 Build 0)  -->
<svg version="1.1" id="Слой_1" xmlns="http://www.w3.org/2000/svg" xmlns:xlink="http://www.w3.org/1999/xlink" x="0px" y="0px"
	 viewBox="0 0 257.1 300" style="enable-background:new 0 0 257.1 300;" xml:space="preserve">
<path d="M64.3,0C52.4,0,42.9,9.6,42.9,21.4v139.3H16.1c-8.9,0-16.1,7.2-16.1,16.1c0,8.9,7.2,16.1,16.1,16.1h26.8V225H16.1
	C7.2,225,0,232.2,0,241.1c0,8.9,7.2,16.1,16.1,16.1h26.8v21.4c0,11.9,9.6,21.4,21.4,21.4s21.4-9.6,21.4-21.4v-21.4h101.8
	c8.9,0,16.1-7.2,16.1-16.1c0-8.9-7.2-16.1-16.1-16.1H85.7v-32.1h75c53.2,0,96.4-43.2,96.4-96.4S214,0,160.7,0H64.3z M160.7,150h-75
	V42.9h75c29.6,0,53.6,24,53.6,53.6S190.3,150,160.7,150z"/>
</svg>
