<?xml version="1.0" encoding="utf-8"?>
<!-- Generator: Adobe Illustrator 24.1.2, SVG Export Plug-In . SVG Version: 6.00 Build 0)  -->
<svg version="1.1" id="Слой_1" xmlns="http://www.w3.org/2000/svg" xmlns:xlink="http://www.w3.org/1999/xlink" x="0px" y="0px"
	 viewBox="0 0 18.7 12.9" style="enable-background:new 0 0 18.7 12.9;" xml:space="preserve">
<path d="M1.4,12.5c-0.3,0-0.5-0.1-0.7-0.3c-0.2-0.2-0.3-0.4-0.3-0.7c0-0.3,0.1-0.5,0.3-0.7c0.2-0.2,0.4-0.3,0.7-0.3h16
	c0.3,0,0.5,0.1,0.7,0.3c0.2,0.2,0.3,0.4,0.3,0.7c0,0.3-0.1,0.5-0.3,0.7c-0.2,0.2-0.4,0.3-0.7,0.3H1.4z M1.4,7.5
	c-0.3,0-0.5-0.1-0.7-0.3C0.5,7,0.4,6.7,0.4,6.5c0-0.3,0.1-0.5,0.3-0.7c0.2-0.2,0.4-0.3,0.7-0.3h16c0.3,0,0.5,0.1,0.7,0.3
	c0.2,0.2,0.3,0.4,0.3,0.7c0,0.3-0.1,0.5-0.3,0.7c-0.2,0.2-0.4,0.3-0.7,0.3H1.4z M1.4,2.5c-0.3,0-0.5-0.1-0.7-0.3
	C0.5,2,0.4,1.7,0.4,1.5s0.1-0.5,0.3-0.7c0.2-0.2,0.4-0.3,0.7-0.3h16c0.3,0,0.5,0.1,0.7,0.3c0.2,0.2,0.3,0.4,0.3,0.7S18.3,2,18.1,2.2
	c-0.2,0.2-0.4,0.3-0.7,0.3H1.4z"/>
</svg>
