<?xml version="1.0" encoding="utf-8"?>
<!-- Generator: Adobe Illustrator 24.1.2, SVG Export Plug-In . SVG Version: 6.00 Build 0)  -->
<svg version="1.1" id="Слой_1" xmlns="http://www.w3.org/2000/svg" xmlns:xlink="http://www.w3.org/1999/xlink" x="0px" y="0px"
	 viewBox="0 0 640 640" style="enable-background:new 0 0 640 640;" xml:space="preserve">
<path d="M320.1,57.2c9,0,17.3,5.1,21.4,13.1L415,214.5l159.9,25.4c8.9,1.4,16.3,7.7,19.1,16.3s0.5,18-5.8,24.4L473.7,395.1L499,555
	c1.4,8.9-2.3,17.9-9.6,23.2c-7.3,5.3-17,6.1-25,2l-144.3-73.4l-144.3,73.4c-8,4.1-17.7,3.3-25-2s-11-14.2-9.6-23.2l25.2-159.9
	L52,280.6c-6.4-6.4-8.6-15.8-5.8-24.4s10.1-14.9,19.1-16.3l159.9-25.4l73.6-144.2c4.1-8,12.4-13.1,21.4-13.1H320.1z M320.1,134
	l-57.8,113.2c-3.5,6.8-10,11.6-17.6,12.8l-125.5,20l89.8,89.9c5.4,5.4,7.9,13.1,6.7,20.7l-19.8,125.5l113.3-57.6
	c6.8-3.5,14.9-3.5,21.8,0l113.3,57.6l-19.8-125.5c-1.2-7.6,1.3-15.3,6.7-20.7L521,280l-125.5-20c-7.6-1.2-14.1-6-17.6-12.8
	L320.1,134z"/>
</svg>
