<?xml version="1.0" encoding="utf-8"?>
<!-- Generator: Adobe Illustrator 24.1.2, SVG Export Plug-In . SVG Version: 6.00 Build 0)  -->
<svg version="1.1" id="Слой_1" xmlns="http://www.w3.org/2000/svg" xmlns:xlink="http://www.w3.org/1999/xlink" x="0px" y="0px"
	 viewBox="0 0 640 640" style="enable-background:new 0 0 640 640;" xml:space="preserve">
<path d="M341.5,70.3c-4.1-8-12.4-13.1-21.4-13.1s-17.3,5.1-21.4,13.1l-73.6,144.2L65.2,239.9c-8.9,1.4-16.3,7.7-19.1,16.3
	c-2.8,8.6-0.5,18,5.8,24.4l114.4,114.5L141.1,555c-1.4,8.9,2.3,17.9,9.6,23.2s16.9,6.1,25,2l144.4-73.4l144.3,73.4
	c8,4.1,17.7,3.3,25-2c7.3-5.3,11-14.2,9.6-23.2l-25.3-159.9l114.4-114.5c6.4-6.4,8.6-15.8,5.8-24.4c-2.8-8.6-10.1-14.9-19.1-16.3
	L415,214.5L341.5,70.3z"/>
</svg>
