<?xml version="1.0" encoding="utf-8"?>
<!-- Generator: Adobe Illustrator 24.1.2, SVG Export Plug-In . SVG Version: 6.00 Build 0)  -->
<svg version="1.1" id="Слой_1" xmlns="http://www.w3.org/2000/svg" xmlns:xlink="http://www.w3.org/1999/xlink" x="0px" y="0px"
	 viewBox="0 0 300 300" style="enable-background:new 0 0 300 300;" xml:space="preserve">
<path d="M42.7,7.4c-9.8-9.8-25.6-9.8-35.4,0s-9.8,25.6,0,35.4L114.6,150L7.4,257.3c-9.8,9.8-9.8,25.6,0,35.4s25.6,9.8,35.4,0
	L150,185.4l107.3,107.2c9.8,9.8,25.6,9.8,35.4,0c9.8-9.8,9.8-25.6,0-35.4L185.4,150L292.6,42.7c9.8-9.8,9.8-25.6,0-35.4
	c-9.8-9.8-25.6-9.8-35.4,0L150,114.6L42.7,7.4z"/>
</svg>
